{
	"asset":{
		"generator":"Khronos glTF Blender I/O v5.1.18",
		"version":"2.0"
	},
	"extensionsUsed":[
		"KHR_materials_unlit",
		"KHR_texture_transform"
	],
	"extensionsRequired":[
		"KHR_texture_transform"
	],
	"scene":0,
	"scenes":[
		{
			"name":"Scene",
			"nodes":[
				0,
				1,
				2,
				3,
				4,
				5,
				6,
				7,
				8,
				9,
				10,
				11,
				12,
				13,
				14,
				15,
				16,
				17,
				18,
				19,
				20,
				21,
				22,
				23,
				24,
				25,
				26,
				27,
				28,
				29,
				30,
				31,
				32,
				33,
				34,
				35,
				36,
				37,
				38,
				39,
				40,
				41,
				42,
				43,
				44,
				45,
				46,
				47,
				48,
				49,
				50,
				51,
				52,
				53,
				54,
				55,
				56,
				57,
				58,
				59,
				60,
				61,
				62,
				63,
				64,
				65,
				66,
				67,
				68,
				69,
				70,
				71,
				72,
				73,
				74,
				75,
				76,
				77,
				78,
				79,
				80,
				81,
				82,
				83,
				84,
				85,
				86,
				87,
				88,
				89,
				90,
				91,
				92,
				93,
				94,
				95,
				96,
				97,
				98,
				99,
				100,
				101,
				102,
				103,
				104,
				105,
				106,
				107,
				108,
				109,
				110,
				111,
				112,
				113,
				114,
				115,
				116,
				117,
				118,
				119,
				120,
				121,
				122,
				123,
				124,
				125,
				126,
				127,
				128,
				129,
				130,
				131,
				132,
				133,
				134,
				135,
				136,
				137,
				138,
				139,
				140,
				141,
				142,
				143,
				144,
				145,
				146,
				147,
				148,
				149,
				150,
				151,
				152,
				153,
				154,
				155,
				156,
				157,
				158,
				159,
				160,
				161,
				162,
				163,
				164,
				165,
				166,
				167,
				168,
				169,
				170,
				171,
				172,
				173,
				174,
				181,
				182
			]
		}
	],
	"nodes":[
		{
			"mesh":0,
			"name":"Cylinder"
		},
		{
			"mesh":1,
			"name":"Cylinder.002",
			"rotation":[
				0,
				0.7071068286895752,
				0,
				0.7071068286895752
			],
			"scale":[
				0.8708581924438477,
				1,
				1
			]
		},
		{
			"mesh":2,
			"name":"Torus",
			"rotation":[
				0.6532814502716064,
				0.27059808373451233,
				0.2705981135368347,
				0.6532815098762512
			],
			"scale":[
				4.04696798324585,
				4.825660705566406,
				4.04696798324585
			],
			"translation":[
				-7.252744197845459,
				9.000009536743164,
				11.671488761901855
			]
		},
		{
			"mesh":3,
			"name":"Cube",
			"scale":[
				3.3753204345703125,
				5.292702674865723,
				0.4080674648284912
			],
			"translation":[
				5.931138515472412,
				7.000009059906006,
				11.671488761901855
			]
		},
		{
			"mesh":4,
			"name":"Cube.001",
			"scale":[
				12.233946800231934,
				7.966290473937988,
				10.456701278686523
			],
			"translation":[
				0,
				8.556608200073242,
				0
			]
		},
		{
			"mesh":5,
			"name":"Cube.002",
			"scale":[
				12.233946800231934,
				7.966290473937988,
				10.456701278686523
			],
			"translation":[
				0,
				8.556608200073242,
				0
			]
		},
		{
			"mesh":6,
			"name":"Cube.003",
			"scale":[
				3.8254969120025635,
				1,
				1.6815855503082275
			],
			"translation":[
				0,
				1.590317726135254,
				-8.889595985412598
			]
		},
		{
			"name":"Empty",
			"translation":[
				0,
				1.590317726135254,
				-9.571181297302246
			]
		},
		{
			"mesh":7,
			"name":"Torus.002",
			"rotation":[
				0.7071068286895752,
				0,
				0,
				0.7071068286895752
			],
			"scale":[
				1.8045270442962646,
				1.8045270442962646,
				1.8045270442962646
			],
			"translation":[
				6.005556106567383,
				10.142778396606445,
				-10.302090644836426
			]
		},
		{
			"mesh":8,
			"name":"Torus.001",
			"rotation":[
				0.7071068286895752,
				0,
				0,
				0.7071068286895752
			],
			"scale":[
				1.8045270442962646,
				1.8045270442962646,
				1.8045270442962646
			],
			"translation":[
				6.005556106567383,
				10.142778396606445,
				-10.009895324707031
			]
		},
		{
			"mesh":9,
			"name":"Cube.004",
			"scale":[
				13.261086463928223,
				8.635125160217285,
				11.334626197814941
			],
			"translation":[
				0,
				15.522286415100098,
				0
			]
		},
		{
			"mesh":10,
			"name":"Plane",
			"scale":[
				1.2743375301361084,
				1,
				1.7508268356323242
			],
			"translation":[
				8.585811614990234,
				0,
				0
			]
		},
		{
			"name":"B\u00e9zierCurve",
			"scale":[
				19.41346549987793,
				19.41346549987793,
				19.41346549987793
			]
		},
		{
			"mesh":11,
			"name":"Retopo_3DModel_mesh.001",
			"rotation":[
				0.39742228388786316,
				0.5757388472557068,
				-0.4107212424278259,
				0.5847122073173523
			],
			"scale":[
				11.370016098022461,
				12.864654541015625,
				9.171637535095215
			],
			"translation":[
				8.959691047668457,
				22.01890754699707,
				-1.6002697944641113
			]
		},
		{
			"mesh":11,
			"name":"Retopo_3DModel_mesh.002",
			"rotation":[
				0.3878270089626312,
				0.4529891312122345,
				-0.26355883479118347,
				0.7582399249076843
			],
			"scale":[
				11.938268661499023,
				11.731959342956543,
				9.936521530151367
			],
			"translation":[
				7.981786727905273,
				23.941791534423828,
				1.7530955076217651
			]
		},
		{
			"mesh":11,
			"name":"Retopo_3DModel_mesh.003",
			"rotation":[
				0.4107125997543335,
				-0.11897484213113785,
				0.06720445305109024,
				0.9014675617218018
			],
			"scale":[
				13.151629447937012,
				10.374345779418945,
				9.914793014526367
			],
			"translation":[
				-8.031886100769043,
				19.132904052734375,
				7.526292324066162
			]
		},
		{
			"mesh":11,
			"name":"Retopo_3DModel_mesh.004",
			"rotation":[
				0.3973531126976013,
				0.40834251046180725,
				-0.23882700502872467,
				0.7863386869430542
			],
			"scale":[
				12.13259506225586,
				11.53678035736084,
				9.929672241210938
			],
			"translation":[
				8.304252624511719,
				21.834218978881836,
				3.83805251121521
			]
		},
		{
			"mesh":11,
			"name":"Retopo_3DModel_mesh.005",
			"rotation":[
				0.40678462386131287,
				-0.1508626639842987,
				0.08476454764604568,
				0.8969848155975342
			],
			"scale":[
				13.086743354797363,
				10.42182445526123,
				9.950793266296387
			],
			"translation":[
				-7.575615882873535,
				20.243972778320312,
				6.3554606437683105
			]
		},
		{
			"mesh":11,
			"name":"Retopo_3DModel_mesh.006",
			"rotation":[
				0.40345466136932373,
				-0.1498350203037262,
				0.08350357413291931,
				0.8987776041030884
			],
			"scale":[
				13.089656829833984,
				10.397063255310059,
				9.97283935546875
			],
			"translation":[
				-9.45207405090332,
				17.333328247070312,
				9.308858871459961
			]
		},
		{
			"mesh":11,
			"name":"Retopo_3DModel_mesh.007",
			"rotation":[
				0.02735152840614319,
				-0.9094179272651672,
				0.41213521361351013,
				0.048533886671066284
			],
			"scale":[
				13.242718696594238,
				10.282600402832031,
				9.889093399047852
			],
			"translation":[
				3.7037065029144287,
				24.458572387695312,
				-2.4543662071228027
			]
		},
		{
			"mesh":11,
			"name":"Retopo_3DModel_mesh.008",
			"rotation":[
				0.3752555847167969,
				0.3688991963863373,
				-0.20236873626708984,
				0.8259198069572449
			],
			"scale":[
				12.334726333618164,
				11.080545425415039,
				10.196648597717285
			],
			"translation":[
				8.67897891998291,
				20.542016983032227,
				5.380677700042725
			]
		},
		{
			"mesh":11,
			"name":"Retopo_3DModel_mesh.009",
			"rotation":[
				0.00014934028149582446,
				-0.8969212770462036,
				0.44219011068344116,
				0.0002469026658218354
			],
			"scale":[
				13.261090278625488,
				10.437825202941895,
				9.700052261352539
			],
			"translation":[
				1.8168147802352905,
				18.151103973388672,
				-8.725945472717285
			]
		},
		{
			"mesh":11,
			"name":"Retopo_3DModel_mesh.010",
			"rotation":[
				0.002671625232324004,
				-0.8982794880867004,
				0.43939417600631714,
				0.004446462728083134
			],
			"scale":[
				13.260931968688965,
				10.42199993133545,
				9.717270851135254
			],
			"translation":[
				4.411472320556641,
				23.175472259521484,
				-3.78820538520813
			]
		},
		{
			"mesh":11,
			"name":"Retopo_3DModel_mesh.011",
			"rotation":[
				0.3052998185157776,
				0.7062014937400818,
				-0.4069582521915436,
				0.4923986494541168
			],
			"scale":[
				11.725531578063965,
				12.205646514892578,
				9.61404037475586
			],
			"translation":[
				8.05715560913086,
				24.62005043029785,
				-0.7086557745933533
			]
		},
		{
			"mesh":11,
			"name":"Retopo_3DModel_mesh.012",
			"rotation":[
				0.005740569904446602,
				-0.8970536589622498,
				0.44178247451782227,
				0.00949959084391594
			],
			"scale":[
				13.260355949401855,
				10.436345100402832,
				9.702638626098633
			],
			"translation":[
				3.8425137996673584,
				21.94036293029785,
				-4.978827476501465
			]
		},
		{
			"mesh":11,
			"name":"Retopo_3DModel_mesh.013",
			"rotation":[
				0.378978967666626,
				-0.6105518937110901,
				0.4347333312034607,
				0.5427783131599426
			],
			"scale":[
				11.446046829223633,
				12.842392921447754,
				9.108046531677246
			],
			"translation":[
				-8.565361022949219,
				23.40407943725586,
				-0.9464853405952454
			]
		},
		{
			"mesh":11,
			"name":"Retopo_3DModel_mesh.014",
			"rotation":[
				0.3628193736076355,
				0.3541020154953003,
				-0.1877591758966446,
				0.8412612080574036
			],
			"scale":[
				12.40832805633545,
				10.881047248840332,
				10.32142448425293
			],
			"translation":[
				9.691792488098145,
				18.749916076660156,
				7.294186115264893
			]
		},
		{
			"mesh":11,
			"name":"Retopo_3DModel_mesh.015",
			"rotation":[
				0.019256863743066788,
				0.8994069695472717,
				-0.4354892671108246,
				0.03233258053660393
			],
			"scale":[
				13.252711296081543,
				10.408994674682617,
				9.742390632629395
			],
			"translation":[
				5.969746112823486,
				20.953086853027344,
				-5.9670891761779785
			]
		},
		{
			"mesh":11,
			"name":"Retopo_3DModel_mesh.016",
			"rotation":[
				0.00010049936827272177,
				0.8965744972229004,
				-0.4428929388523102,
				0.00016596868226770312
			],
			"scale":[
				13.261085510253906,
				10.441839218139648,
				9.695728302001953
			],
			"translation":[
				-3.9647953510284424,
				15.917020797729492,
				-10.931662559509277
			]
		},
		{
			"mesh":11,
			"name":"Retopo_3DModel_mesh.017",
			"rotation":[
				0.22767023742198944,
				-0.7958643436431885,
				0.41511186957359314,
				0.37742337584495544
			],
			"scale":[
				12.254068374633789,
				11.512890815734863,
				9.807488441467285
			],
			"translation":[
				-7.541322231292725,
				23.455707550048828,
				-2.4386281967163086
			]
		},
		{
			"mesh":11,
			"name":"Retopo_3DModel_mesh.018",
			"rotation":[
				0.003410395933315158,
				0.9321936368942261,
				-0.3618786633014679,
				0.006870282348245382
			],
			"scale":[
				13.260732650756836,
				9.96085262298584,
				10.189695358276367
			],
			"translation":[
				-0.11725347489118576,
				24.551576614379883,
				-1.961025595664978
			]
		},
		{
			"mesh":11,
			"name":"Retopo_3DModel_mesh.019",
			"rotation":[
				0.02102310210466385,
				0.8999765515327454,
				-0.43398797512054443,
				0.03542084991931915
			],
			"scale":[
				13.25104808807373,
				10.402193069458008,
				9.751899719238281
			],
			"translation":[
				6.547270774841309,
				19.938133239746094,
				-6.966032028198242
			]
		},
		{
			"mesh":11,
			"name":"Retopo_3DModel_mesh.020",
			"rotation":[
				0.4339677095413208,
				7.433147402480245e-05,
				-4.408925451571122e-05,
				0.9009285569190979
			],
			"scale":[
				13.261086463928223,
				10.39055061340332,
				9.75067138671875
			],
			"translation":[
				-0.1920447200536728,
				19.38577651977539,
				7.347292900085449
			]
		},
		{
			"mesh":11,
			"name":"Retopo_3DModel_mesh.021",
			"rotation":[
				0.39268043637275696,
				-0.03543757274746895,
				0.019033875316381454,
				0.9187948703765869
			],
			"scale":[
				13.251471519470215,
				10.156258583068848,
				10.007223129272461
			],
			"translation":[
				0.71784508228302,
				23.687191009521484,
				2.6057398319244385
			]
		},
		{
			"mesh":11,
			"name":"Retopo_3DModel_mesh.022",
			"rotation":[
				0.0011698707239702344,
				-0.8968600034713745,
				0.4423087239265442,
				0.0019335565157234669
			],
			"scale":[
				13.26105785369873,
				10.43853759765625,
				9.699324607849121
			],
			"translation":[
				4.501791477203369,
				20.181747436523438,
				-6.720386028289795
			]
		},
		{
			"mesh":11,
			"name":"Retopo_3DModel_mesh.023",
			"rotation":[
				0.07195531576871872,
				-0.8913589119911194,
				0.43077030777931213,
				0.1214028149843216
			],
			"scale":[
				13.144542694091797,
				10.506362915039062,
				9.78432846069336
			],
			"translation":[
				-5.729557991027832,
				23.592077255249023,
				-3.3012611865997314
			]
		},
		{
			"mesh":11,
			"name":"Retopo_3DModel_mesh.024",
			"rotation":[
				0.014901761896908283,
				0.899367094039917,
				-0.4362255334854126,
				0.024981459602713585
			],
			"scale":[
				13.256077766418457,
				10.409363746643066,
				9.737403869628906
			],
			"translation":[
				6.963674545288086,
				18.234447479248047,
				-8.647242546081543
			]
		},
		{
			"mesh":11,
			"name":"Retopo_3DModel_mesh.025",
			"rotation":[
				0.43907302618026733,
				7.464604277629405e-05,
				-4.4816766603617e-05,
				0.8984513878822327
			],
			"scale":[
				13.261086463928223,
				10.419970512390137,
				9.71922492980957
			],
			"translation":[
				-0.7134873270988464,
				16.03042221069336,
				10.744028091430664
			]
		},
		{
			"mesh":11,
			"name":"Retopo_3DModel_mesh.026",
			"rotation":[
				0.0002240630565211177,
				-0.8966599702835083,
				0.44271960854530334,
				0.0003699291846714914
			],
			"scale":[
				13.261090278625488,
				10.440851211547852,
				9.696797370910645
			],
			"translation":[
				5.605321407318115,
				17.417051315307617,
				-9.453179359436035
			]
		},
		{
			"mesh":11,
			"name":"Retopo_3DModel_mesh.027",
			"rotation":[
				0.3409374952316284,
				-0.6134293079376221,
				0.3520444333553314,
				0.6192986965179443
			],
			"scale":[
				11.395809173583984,
				12.28547191619873,
				9.904460906982422
			],
			"translation":[
				-12.85181999206543,
				15.789514541625977,
				8.09998607635498
			]
		},
		{
			"mesh":11,
			"name":"Retopo_3DModel_mesh.028",
			"rotation":[
				0.43565937876701355,
				-0.0010730514768511057,
				0.0006390417693182826,
				0.9001107215881348
			],
			"scale":[
				13.261076927185059,
				10.400336265563965,
				9.740248680114746
			],
			"translation":[
				1.7757004499435425,
				18.92232894897461,
				7.8253936767578125
			]
		},
		{
			"mesh":11,
			"name":"Retopo_3DModel_mesh.029",
			"rotation":[
				0.3674054741859436,
				-0.32508566975593567,
				0.17271673679351807,
				0.8541086912155151
			],
			"scale":[
				12.527189254760742,
				10.775787353515625,
				10.288224220275879
			],
			"translation":[
				-9.881368637084961,
				18.231338500976562,
				7.934793472290039
			]
		},
		{
			"mesh":11,
			"name":"Retopo_3DModel_mesh.030",
			"rotation":[
				0.4331173896789551,
				-0.003442914690822363,
				0.0020380239002406597,
				0.9013286828994751
			],
			"scale":[
				13.260991096496582,
				10.385737419128418,
				9.755925178527832
			],
			"translation":[
				2.1992223262786865,
				20.08757781982422,
				6.630918979644775
			]
		},
		{
			"mesh":11,
			"name":"Retopo_3DModel_mesh.031",
			"rotation":[
				0.3526887595653534,
				-0.42121243476867676,
				0.223228320479393,
				0.8052079677581787
			],
			"scale":[
				12.121609687805176,
				11.158072471618652,
				10.366270065307617
			],
			"translation":[
				-11.9879789352417,
				15.86560344696045,
				9.801461219787598
			]
		},
		{
			"mesh":11,
			"name":"Retopo_3DModel_mesh.032",
			"rotation":[
				0.00041754957055673003,
				-0.8968009352684021,
				0.44243350625038147,
				0.0006898840074427426
			],
			"scale":[
				13.261085510253906,
				10.43921947479248,
				9.698554992675781
			],
			"translation":[
				4.853571891784668,
				18.61835479736328,
				-8.266674041748047
			]
		},
		{
			"mesh":11,
			"name":"Retopo_3DModel_mesh.033",
			"rotation":[
				3.952312908950262e-05,
				-0.8965729475021362,
				0.44289615750312805,
				6.525645585497841e-05
			],
			"scale":[
				13.261085510253906,
				10.441855430603027,
				9.695710182189941
			],
			"translation":[
				1.763405203819275,
				15.570655822753906,
				-11.27264404296875
			]
		},
		{
			"mesh":11,
			"name":"Retopo_3DModel_mesh.034",
			"rotation":[
				0.38500159978866577,
				-0.5700926780700684,
				0.35404425859451294,
				0.6335778832435608
			],
			"scale":[
				11.34682559967041,
				12.56389331817627,
				9.60696029663086
			],
			"translation":[
				-10.115032196044922,
				19.95730972290039,
				-3.660794496536255
			]
		},
		{
			"mesh":11,
			"name":"Retopo_3DModel_mesh.035",
			"rotation":[
				0.4148387014865875,
				-0.10329822450876236,
				0.05883161351084709,
				0.9020960330963135
			],
			"scale":[
				13.178037643432617,
				10.370469093322754,
				9.883736610412598
			],
			"translation":[
				-10.107800483703613,
				15.695453643798828,
				11.01705265045166
			]
		},
		{
			"mesh":11,
			"name":"Retopo_3DModel_mesh.036",
			"rotation":[
				0.370903342962265,
				0.30823686718940735,
				-0.16433781385421753,
				0.8604731559753418
			],
			"scale":[
				12.593443870544434,
				10.725824356079102,
				10.259503364562988
			],
			"translation":[
				10.420502662658691,
				17.286968231201172,
				8.936177253723145
			]
		},
		{
			"mesh":11,
			"name":"Retopo_3DModel_mesh.037",
			"rotation":[
				0.4370913505554199,
				0.006835950072854757,
				-0.004085037857294083,
				0.8993818759918213
			],
			"scale":[
				13.260709762573242,
				10.409012794494629,
				9.731473922729492
			],
			"translation":[
				6.553164482116699,
				16.621145248413086,
				10.156363487243652
			]
		},
		{
			"mesh":11,
			"name":"Retopo_3DModel_mesh.038",
			"rotation":[
				0.3664073646068573,
				-0.4020542800426483,
				0.2184714823961258,
				0.810165524482727
			],
			"scale":[
				12.19498062133789,
				11.185494422912598,
				10.250011444091797
			],
			"translation":[
				-7.594746112823486,
				24.46064567565918,
				1.618259072303772
			]
		},
		{
			"mesh":11,
			"name":"Retopo_3DModel_mesh.039",
			"rotation":[
				0.00020131331984885037,
				-0.8967623710632324,
				0.44251230359077454,
				0.00033251126296818256
			],
			"scale":[
				13.261088371276855,
				10.439666748046875,
				9.698071479797363
			],
			"translation":[
				3.587373733520508,
				17.59136390686035,
				-9.279850959777832
			]
		},
		{
			"mesh":11,
			"name":"Retopo_3DModel_mesh.040",
			"rotation":[
				0.42795372009277344,
				0.0401526540517807,
				-0.023495232686400414,
				0.9026025533676147
			],
			"scale":[
				13.248285293579102,
				10.370133399963379,
				9.789731979370117
			],
			"translation":[
				7.949974060058594,
				18.077348709106445,
				8.692821502685547
			]
		},
		{
			"mesh":11,
			"name":"Retopo_3DModel_mesh.041",
			"rotation":[
				0.404778391122818,
				-0.4207339584827423,
				0.2514505684375763,
				0.7719520926475525
			],
			"scale":[
				12.064220428466797,
				11.69228744506836,
				9.830595970153809
			],
			"translation":[
				-8.26506233215332,
				22.2251033782959,
				3.418013334274292
			]
		},
		{
			"mesh":11,
			"name":"Retopo_3DModel_mesh.042",
			"rotation":[
				0.005676420405507088,
				0.8971039056777954,
				-0.44168323278427124,
				0.00939563475549221
			],
			"scale":[
				13.260374069213867,
				10.435759544372559,
				9.7032470703125
			],
			"translation":[
				-3.2913107872009277,
				21.525753021240234,
				-5.38563346862793
			]
		},
		{
			"mesh":11,
			"name":"Retopo_3DModel_mesh.043",
			"rotation":[
				0.2525016665458679,
				0.7697566151618958,
				-0.41818898916244507,
				0.4108961522579193
			],
			"scale":[
				12.090543746948242,
				11.760482788085938,
				9.716242790222168
			],
			"translation":[
				7.792255401611328,
				23.283679962158203,
				-2.394059419631958
			]
		},
		{
			"mesh":11,
			"name":"Retopo_3DModel_mesh.044",
			"rotation":[
				0.4391118586063385,
				-0.00024754562764428556,
				0.0001486377150285989,
				0.8984323740005493
			],
			"scale":[
				13.261085510253906,
				10.420195579528809,
				9.718986511230469
			],
			"translation":[
				1.9830827713012695,
				16.018770217895508,
				10.756120681762695
			]
		},
		{
			"mesh":11,
			"name":"Retopo_3DModel_mesh.045",
			"rotation":[
				0.4302407503128052,
				0.033195678144693375,
				-0.019525904208421707,
				0.9018923044204712
			],
			"scale":[
				13.252312660217285,
				10.37893295288086,
				9.774946212768555
			],
			"translation":[
				-4.118688583374023,
				22.98126983642578,
				3.6603832244873047
			]
		},
		{
			"mesh":11,
			"name":"Retopo_3DModel_mesh.046",
			"rotation":[
				0.4347568154335022,
				0.007639442570507526,
				-0.00453993258997798,
				0.9005041718482971
			],
			"scale":[
				13.260618209838867,
				10.395648956298828,
				9.745871543884277
			],
			"translation":[
				5.657642841339111,
				18.712005615234375,
				8.04719352722168
			]
		},
		{
			"mesh":11,
			"name":"Retopo_3DModel_mesh.047",
			"rotation":[
				0.42065539956092834,
				0.0763295516371727,
				-0.04398003965616226,
				0.9029333591461182
			],
			"scale":[
				13.21532154083252,
				10.36404037475586,
				9.840604782104492
			],
			"translation":[
				9.436212539672852,
				16.441360473632812,
				10.29968547821045
			]
		},
		{
			"mesh":11,
			"name":"Retopo_3DModel_mesh.048",
			"rotation":[
				0.42998582124710083,
				0.0327034592628479,
				-0.019224386662244797,
				0.9020383358001709
			],
			"scale":[
				13.252572059631348,
				10.377147674560547,
				9.776488304138184
			],
			"translation":[
				6.390215873718262,
				20.034225463867188,
				6.705706596374512
			]
		},
		{
			"mesh":11,
			"name":"Retopo_3DModel_mesh.049",
			"rotation":[
				0.3681517541408539,
				0.3281429409980774,
				-0.17481131851673126,
				0.852189838886261
			],
			"scale":[
				12.514139175415039,
				10.797603607177734,
				10.281231880187988
			],
			"translation":[
				11.535233497619629,
				15.815970420837402,
				10.335005760192871
			]
		},
		{
			"mesh":11,
			"name":"Retopo_3DModel_mesh.050",
			"rotation":[
				0.007488541770726442,
				-0.8982311487197876,
				0.4392828047275543,
				0.012465733103454113
			],
			"scale":[
				13.259834289550781,
				10.422627449035645,
				9.718084335327148
			],
			"translation":[
				-5.3720383644104,
				19.78974723815918,
				-7.1103668212890625
			]
		},
		{
			"mesh":11,
			"name":"Retopo_3DModel_mesh.051",
			"rotation":[
				0.4252435266971588,
				0.02368454448878765,
				-0.01376259047538042,
				0.9046644568443298
			],
			"scale":[
				13.256643295288086,
				10.34479808807373,
				9.805209159851074
			],
			"translation":[
				-2.7795755863189697,
				22.204248428344727,
				4.411009311676025
			]
		},
		{
			"mesh":11,
			"name":"Retopo_3DModel_mesh.052",
			"rotation":[
				0.33880704641342163,
				0.5771669149398804,
				-0.3200889825820923,
				0.6705454587936401
			],
			"scale":[
				11.500129699707031,
				12.017605781555176,
				10.110380172729492
			],
			"translation":[
				12.573174476623535,
				16.075422286987305,
				8.40168571472168
			]
		},
		{
			"mesh":11,
			"name":"Retopo_3DModel_mesh.053",
			"rotation":[
				0.43569910526275635,
				-0.007393529638648033,
				0.004403646104037762,
				0.9000513553619385
			],
			"scale":[
				13.26064682006836,
				10.4010591506958,
				9.740060806274414
			],
			"translation":[
				-6.057114124298096,
				17.90283966064453,
				8.864995002746582
			]
		},
		{
			"mesh":11,
			"name":"Retopo_3DModel_mesh.054",
			"rotation":[
				0.4347965121269226,
				-0.011175315827131271,
				0.00664204778149724,
				0.9004349708557129
			],
			"scale":[
				13.260085105895996,
				10.39649486541748,
				9.745697975158691
			],
			"translation":[
				4.242185592651367,
				21.044687271118164,
				5.660940647125244
			]
		},
		{
			"mesh":11,
			"name":"Retopo_3DModel_mesh.055",
			"rotation":[
				0.02337990701198578,
				-0.90031498670578,
				0.432812362909317,
				0.039496563374996185
			],
			"scale":[
				13.24863338470459,
				10.398137092590332,
				9.759519577026367
			],
			"translation":[
				-7.198108196258545,
				19.17934799194336,
				-7.715592861175537
			]
		},
		{
			"mesh":11,
			"name":"Retopo_3DModel_mesh.056",
			"rotation":[
				0.3812392055988312,
				-0.5716356635093689,
				0.3442234694957733,
				0.6398434042930603
			],
			"scale":[
				11.345586776733398,
				12.493041038513184,
				9.700369834899902
			],
			"translation":[
				-13.002664566040039,
				15.678926467895508,
				-7.152036190032959
			]
		},
		{
			"mesh":11,
			"name":"Retopo_3DModel_mesh.057",
			"rotation":[
				0.4367145001888275,
				0.017258618026971817,
				-0.010305407457053661,
				0.8993756771087646
			],
			"scale":[
				13.258695602416992,
				10.409168243408203,
				9.734053611755371
			],
			"translation":[
				5.506739139556885,
				22.07741928100586,
				4.638132095336914
			]
		},
		{
			"mesh":11,
			"name":"Retopo_3DModel_mesh.058",
			"rotation":[
				0.3893198072910309,
				-0.5543310642242432,
				0.33734551072120667,
				0.6537165641784668
			],
			"scale":[
				11.336692810058594,
				12.501290321350098,
				9.700141906738281
			],
			"translation":[
				-12.86419677734375,
				15.884827613830566,
				-3.3806025981903076
			]
		},
		{
			"mesh":11,
			"name":"Retopo_3DModel_mesh.059",
			"rotation":[
				0.0004405812651384622,
				0.9002081155776978,
				-0.4354591369628906,
				0.0007401493494398892
			],
			"scale":[
				13.261087417602539,
				10.39917278289795,
				9.741484642028809
			],
			"translation":[
				-0.1614043414592743,
				21.495515823364258,
				-5.387653350830078
			]
		},
		{
			"mesh":11,
			"name":"Retopo_3DModel_mesh.060",
			"rotation":[
				0.33857259154319763,
				-0.6507943272590637,
				0.3873196840286255,
				0.5584073662757874
			],
			"scale":[
				11.338092803955078,
				12.497157096862793,
				9.703827857971191
			],
			"translation":[
				-12.903961181640625,
				15.817986488342285,
				3.5627732276916504
			]
		},
		{
			"mesh":11,
			"name":"Retopo_3DModel_mesh.061",
			"rotation":[
				0.4342971444129944,
				-0.015675628557801247,
				0.009306269697844982,
				0.9005852937698364
			],
			"scale":[
				13.259119987487793,
				10.394715309143066,
				9.748908042907715
			],
			"translation":[
				4.645094871520996,
				23.034828186035156,
				3.689408779144287
			]
		},
		{
			"mesh":11,
			"name":"Retopo_3DModel_mesh.062",
			"rotation":[
				0.4079533517360687,
				0.0047589195892214775,
				-0.002651817863807082,
				0.9129865169525146
			],
			"scale":[
				13.26091194152832,
				10.237916946411133,
				9.911046981811523
			],
			"translation":[
				-0.5461475849151611,
				22.712974548339844,
				3.753002643585205
			]
		},
		{
			"mesh":11,
			"name":"Retopo_3DModel_mesh.063",
			"rotation":[
				0.38681408762931824,
				-0.560767650604248,
				0.34145933389663696,
				0.6475493311882019
			],
			"scale":[
				11.339383125305176,
				12.509671211242676,
				9.686184883117676
			],
			"translation":[
				-12.635580062866211,
				16.232519149780273,
				-5.204904556274414
			]
		},
		{
			"mesh":11,
			"name":"Retopo_3DModel_mesh.064",
			"rotation":[
				0.33487656712532043,
				-0.6587446331977844,
				0.3924405872821808,
				0.5476346015930176
			],
			"scale":[
				11.335159301757812,
				12.504243850708008,
				9.698125839233398
			],
			"translation":[
				-12.774914741516113,
				16.015670776367188,
				1.0494754314422607
			]
		},
		{
			"mesh":11,
			"name":"Retopo_3DModel_mesh.065",
			"rotation":[
				0.4343647062778473,
				-0.5248915553092957,
				0.4163661599159241,
				0.6020427346229553
			],
			"scale":[
				11.335302352905273,
				13.021749496459961,
				8.991145133972168
			],
			"translation":[
				-8.990399360656738,
				22.496362686157227,
				0.7135909199714661
			]
		},
		{
			"mesh":11,
			"name":"Retopo_3DModel_mesh.066",
			"rotation":[
				0.35594964027404785,
				-0.5776281952857971,
				0.3338157534599304,
				0.6543795466423035
			],
			"scale":[
				11.477462768554688,
				12.222237586975098,
				9.888394355773926
			],
			"translation":[
				-9.90933895111084,
				20.120059967041016,
				4.3364434242248535
			]
		},
		{
			"mesh":11,
			"name":"Retopo_3DModel_mesh.067",
			"rotation":[
				0.327366441488266,
				0.659462034702301,
				-0.3403473198413849,
				0.5848971605300903
			],
			"scale":[
				11.47401237487793,
				12.088159561157227,
				10.055794715881348
			],
			"translation":[
				12.918299674987793,
				15.615411758422852,
				-8.749113082885742
			]
		},
		{
			"mesh":11,
			"name":"Retopo_3DModel_mesh.068",
			"rotation":[
				0.39907193183898926,
				-0.5604426264762878,
				0.3817914128303528,
				0.6171555519104004
			],
			"scale":[
				11.346489906311035,
				12.762384414672852,
				9.342070579528809
			],
			"translation":[
				-9.366232872009277,
				21.251190185546875,
				-1.3375940322875977
			]
		},
		{
			"mesh":11,
			"name":"Retopo_3DModel_mesh.069",
			"rotation":[
				0.35945379734039307,
				0.606253445148468,
				-0.3394497036933899,
				0.622915506362915
			],
			"scale":[
				11.376699447631836,
				12.330154418945312,
				9.870842933654785
			],
			"translation":[
				11.394200325012207,
				17.984312057495117,
				-6.012437343597412
			]
		},
		{
			"mesh":11,
			"name":"Retopo_3DModel_mesh.070",
			"rotation":[
				0.014453672803938389,
				0.9055116176605225,
				-0.42333847284317017,
				0.02498668245971203
			],
			"scale":[
				13.256153106689453,
				10.334168434143066,
				9.817073822021484
			],
			"translation":[
				-1.543359398841858,
				23.11871910095215,
				-3.7123947143554688
			]
		},
		{
			"mesh":11,
			"name":"Retopo_3DModel_mesh.071",
			"rotation":[
				0.0010221012635156512,
				0.897239625453949,
				-0.4415395259857178,
				0.0016923764487728477
			],
			"scale":[
				13.261068344116211,
				10.434133529663086,
				9.704055786132812
			],
			"translation":[
				-2.7074246406555176,
				19.738513946533203,
				-7.154378890991211
			]
		},
		{
			"mesh":11,
			"name":"Retopo_3DModel_mesh.072",
			"rotation":[
				0.4172498285770416,
				-0.025572294369339943,
				0.01457799132913351,
				0.9083150029182434
			],
			"scale":[
				13.255952835083008,
				10.298491477966309,
				9.85476016998291
			],
			"translation":[
				1.6754934787750244,
				22.44093894958496,
				4.1129889488220215
			]
		},
		{
			"mesh":11,
			"name":"Retopo_3DModel_mesh.073",
			"rotation":[
				0.43780213594436646,
				0.0007634792127646506,
				-0.00045700313057750463,
				0.8990709185600281
			],
			"scale":[
				13.26108169555664,
				10.412672996520996,
				9.72704792022705
			],
			"translation":[
				-3.966357469558716,
				17.64255142211914,
				9.12482738494873
			]
		},
		{
			"mesh":11,
			"name":"Retopo_3DModel_mesh.074",
			"rotation":[
				0.3435973525047302,
				-0.4852668344974518,
				0.2585858702659607,
				0.7613083124160767
			],
			"scale":[
				11.848947525024414,
				11.4589262008667,
				10.353313446044922
			],
			"translation":[
				-11.332833290100098,
				17.302701950073242,
				8.034823417663574
			]
		},
		{
			"mesh":11,
			"name":"Retopo_3DModel_mesh.075",
			"rotation":[
				0.39503541588783264,
				0.06534057855606079,
				-0.0353548638522625,
				0.9156569242477417
			],
			"scale":[
				13.228384017944336,
				10.19454574584961,
				9.998832702636719
			],
			"translation":[
				-1.6665011644363403,
				23.8671932220459,
				2.4357893466949463
			]
		},
		{
			"mesh":11,
			"name":"Retopo_3DModel_mesh.076",
			"rotation":[
				0.34290269017219543,
				-0.6441981792449951,
				0.3846207559108734,
				0.5652374029159546
			],
			"scale":[
				11.341670036315918,
				12.505210876464844,
				9.689262390136719
			],
			"translation":[
				-12.676695823669434,
				16.158864974975586,
				5.7616682052612305
			]
		},
		{
			"mesh":11,
			"name":"Retopo_3DModel_mesh.077",
			"rotation":[
				0.3422001898288727,
				-0.6582075953483582,
				0.40051063895225525,
				0.5378224849700928
			],
			"scale":[
				11.334628105163574,
				12.582427024841309,
				9.597098350524902
			],
			"translation":[
				-10.29101848602295,
				19.7246036529541,
				0.6450629830360413
			]
		},
		{
			"mesh":11,
			"name":"Retopo_3DModel_mesh.078",
			"rotation":[
				0.00784722063690424,
				-0.9052197337150574,
				0.42465606331825256,
				0.013525990769267082
			],
			"scale":[
				13.259638786315918,
				10.33798885345459,
				9.808338165283203
			],
			"translation":[
				1.2439546585083008,
				22.822410583496094,
				-4.012782573699951
			]
		},
		{
			"mesh":11,
			"name":"Retopo_3DModel_mesh.079",
			"rotation":[
				0.43904513120651245,
				-0.0005799364880658686,
				0.00034816525294445455,
				0.8984648585319519
			],
			"scale":[
				13.26108455657959,
				10.419814109802246,
				9.719396591186523
			],
			"translation":[
				4.591832637786865,
				16.32857322692871,
				10.44741153717041
			]
		},
		{
			"mesh":11,
			"name":"Retopo_3DModel_mesh.080",
			"rotation":[
				0.418891578912735,
				-0.0308512095361948,
				0.017659451812505722,
				0.9073401689529419
			],
			"scale":[
				13.2536039352417,
				10.310800552368164,
				9.845046997070312
			],
			"translation":[
				4.832012176513672,
				24.223325729370117,
				2.487416982650757
			]
		},
		{
			"mesh":11,
			"name":"Retopo_3DModel_mesh.081",
			"rotation":[
				4.011765850009397e-05,
				0.8966448903083801,
				-0.4427506625652313,
				6.616063183173537e-05
			],
			"scale":[
				13.261088371276855,
				10.441025733947754,
				9.69660472869873
			],
			"translation":[
				-0.9973570704460144,
				16.42119598388672,
				-10.434110641479492
			]
		},
		{
			"mesh":11,
			"name":"Retopo_3DModel_mesh.082",
			"rotation":[
				0.39278122782707214,
				-0.55633544921875,
				0.3525058627128601,
				0.6418359875679016
			],
			"scale":[
				11.339099884033203,
				12.597362518310547,
				9.572190284729004
			],
			"translation":[
				-10.069595336914062,
				20.04500961303711,
				-1.8199753761291504
			]
		},
		{
			"mesh":11,
			"name":"Retopo_3DModel_mesh.083",
			"rotation":[
				0.01629236526787281,
				0.8993591070175171,
				-0.4360518455505371,
				0.027322392910718918
			],
			"scale":[
				13.255096435546875,
				10.409491539001465,
				9.738601684570312
			],
			"translation":[
				7.9078450202941895,
				16.559049606323242,
				-10.300187110900879
			]
		},
		{
			"mesh":11,
			"name":"Retopo_3DModel_mesh.084",
			"rotation":[
				0.4382915496826172,
				0.0002086600725306198,
				-0.00012504500045906752,
				0.8988328576087952
			],
			"scale":[
				13.261085510253906,
				10.415481567382812,
				9.724035263061523
			],
			"translation":[
				-1.429160237312317,
				17.19843864440918,
				9.57241153717041
			]
		},
		{
			"mesh":11,
			"name":"Retopo_3DModel_mesh.085",
			"rotation":[
				0.0020887714345008135,
				-0.8971464037895203,
				0.44171494245529175,
				0.003457246581092477
			],
			"scale":[
				13.260992050170898,
				10.435221672058105,
				9.702983856201172
			],
			"translation":[
				-5.8225555419921875,
				17.641468048095703,
				-9.231871604919434
			]
		},
		{
			"mesh":11,
			"name":"Retopo_3DModel_mesh.086",
			"rotation":[
				0.008975349366664886,
				0.8981956839561462,
				-0.4392501711845398,
				0.01494134496897459
			],
			"scale":[
				13.259293556213379,
				10.423076629638672,
				9.718353271484375
			],
			"translation":[
				7.526183605194092,
				15.493770599365234,
				-11.349620819091797
			]
		},
		{
			"mesh":11,
			"name":"Retopo_3DModel_mesh.087",
			"rotation":[
				0.2934300899505615,
				0.7117844223976135,
				-0.33995041251182556,
				0.5400883555412292
			],
			"scale":[
				11.62992000579834,
				11.780332565307617,
				10.240334510803223
			],
			"translation":[
				9.861649513244629,
				19.788497924804688,
				-5.251636028289795
			]
		},
		{
			"mesh":11,
			"name":"Retopo_3DModel_mesh.088",
			"rotation":[
				0.3670800030231476,
				-0.6342024207115173,
				0.4014458954334259,
				0.5494367480278015
			],
			"scale":[
				11.33824348449707,
				12.708684921264648,
				9.424917221069336
			],
			"translation":[
				-9.87722110748291,
				20.467674255371094,
				2.5243215560913086
			]
		},
		{
			"mesh":11,
			"name":"Retopo_3DModel_mesh.089",
			"rotation":[
				0.43267622590065,
				0.004996970761567354,
				-0.002954854629933834,
				0.9015308022499084
			],
			"scale":[
				13.260887145996094,
				10.38330364227295,
				9.758661270141602
			],
			"translation":[
				-4.618203163146973,
				21.458919525146484,
				5.237156391143799
			]
		},
		{
			"mesh":11,
			"name":"Retopo_3DModel_mesh.090",
			"rotation":[
				0.4256022274494171,
				0.5412437319755554,
				-0.4241700768470764,
				0.588215708732605
			],
			"scale":[
				11.342166900634766,
				13.0195951461792,
				8.985602378845215
			],
			"translation":[
				8.88101863861084,
				22.82123374938965,
				0.3366362750530243
			]
		},
		{
			"mesh":11,
			"name":"Retopo_3DModel_mesh.091",
			"rotation":[
				0.000254679296631366,
				0.8976422548294067,
				-0.44072481989860535,
				0.00042258697794750333
			],
			"scale":[
				13.261088371276855,
				10.429444313049316,
				9.709063529968262
			],
			"translation":[
				-0.43538814783096313,
				19.836196899414062,
				-7.054032802581787
			]
		},
		{
			"mesh":11,
			"name":"Retopo_3DModel_mesh.092",
			"rotation":[
				0.3844854533672333,
				0.5661799907684326,
				-0.34431949257850647,
				0.6426937580108643
			],
			"scale":[
				11.34241771697998,
				12.51182746887207,
				9.679841995239258
			],
			"translation":[
				12.556747436523438,
				16.353130340576172,
				-6.5830159187316895
			]
		},
		{
			"mesh":11,
			"name":"Retopo_3DModel_mesh.093",
			"rotation":[
				0.33516669273376465,
				-0.6611210107803345,
				0.39565443992614746,
				0.5422545671463013
			],
			"scale":[
				11.33468246459961,
				12.52193546295166,
				9.675832748413086
			],
			"translation":[
				-11.160649299621582,
				18.418901443481445,
				0.7353190779685974
			]
		},
		{
			"mesh":11,
			"name":"Retopo_3DModel_mesh.094",
			"rotation":[
				0.38785308599472046,
				0.5571486949920654,
				-0.3379150331020355,
				0.6518962979316711
			],
			"scale":[
				11.337592124938965,
				12.496525764465332,
				9.705232620239258
			],
			"translation":[
				12.97782039642334,
				15.71334457397461,
				-3.8444318771362305
			]
		},
		{
			"mesh":11,
			"name":"Retopo_3DModel_mesh.095",
			"rotation":[
				0.3865768015384674,
				-0.5617294311523438,
				0.3425469398498535,
				0.6462817192077637
			],
			"scale":[
				11.33995246887207,
				12.514079093933105,
				9.67982006072998
			],
			"translation":[
				-11.189240455627441,
				18.37787437438965,
				-4.41071081161499
			]
		},
		{
			"mesh":11,
			"name":"Retopo_3DModel_mesh.096",
			"rotation":[
				0.042259495705366135,
				-0.9012652039527893,
				0.4250469505786896,
				0.07259675115346909
			],
			"scale":[
				13.219475746154785,
				10.385636329650879,
				9.812231063842773
			],
			"translation":[
				-9.155531883239746,
				16.8625431060791,
				-9.963480949401855
			]
		},
		{
			"mesh":11,
			"name":"Retopo_3DModel_mesh.097",
			"rotation":[
				0.0666017085313797,
				-0.899838387966156,
				0.4150051176548004,
				0.1167297288775444
			],
			"scale":[
				13.155205726623535,
				10.397079467773438,
				9.886197090148926
			],
			"translation":[
				-10.26048469543457,
				15.64612865447998,
				-11.111954689025879
			]
		},
		{
			"mesh":11,
			"name":"Retopo_3DModel_mesh.098",
			"rotation":[
				0.39532333612442017,
				0.5411636829376221,
				-0.3321712613105774,
				0.6637195348739624
			],
			"scale":[
				11.334630012512207,
				12.504066467285156,
				9.69897747039795
			],
			"translation":[
				12.79649829864502,
				15.984533309936523,
				-0.536728024482727
			]
		},
		{
			"mesh":11,
			"name":"Retopo_3DModel_mesh.099",
			"rotation":[
				0.3913680613040924,
				-0.551213800907135,
				0.3380926549434662,
				0.6547425389289856
			],
			"scale":[
				11.335990905761719,
				12.515970230102539,
				9.682012557983398
			],
			"translation":[
				-11.273138999938965,
				18.255535125732422,
				-2.2841992378234863
			]
		},
		{
			"mesh":11,
			"name":"Retopo_3DModel_mesh.100",
			"rotation":[
				0.07035455852746964,
				-0.8996721506118774,
				0.41266095638275146,
				0.12389977276325226
			],
			"scale":[
				13.142224311828613,
				10.3970365524292,
				9.903497695922852
			],
			"translation":[
				-8.892186164855957,
				17.891324996948242,
				-8.88237476348877
			]
		},
		{
			"mesh":11,
			"name":"Retopo_3DModel_mesh.101",
			"rotation":[
				0.33681371808052063,
				0.6545802354812622,
				-0.3897276222705841,
				0.5533478260040283
			],
			"scale":[
				11.336389541625977,
				12.500594139099121,
				9.701393127441406
			],
			"translation":[
				12.844314575195312,
				15.909378051757812,
				2.3781957626342773
			]
		},
		{
			"mesh":11,
			"name":"Retopo_3DModel_mesh.102",
			"rotation":[
				0.2328445464372635,
				0.7941040396690369,
				-0.35163378715515137,
				0.43764814734458923
			],
			"scale":[
				12.04947280883789,
				11.246565818786621,
				10.354732513427734
			],
			"translation":[
				11.475730895996094,
				16.747526168823242,
				-8.94648265838623
			]
		},
		{
			"mesh":11,
			"name":"Retopo_3DModel_mesh.103",
			"rotation":[
				0.436451256275177,
				0.00030006119050085545,
				-0.00017903433763422072,
				0.8997278213500977
			],
			"scale":[
				13.261087417602539,
				10.404892921447754,
				9.735370635986328
			],
			"translation":[
				-1.111975908279419,
				18.4157772064209,
				8.340211868286133
			]
		},
		{
			"mesh":11,
			"name":"Retopo_3DModel_mesh.104",
			"rotation":[
				0.0926247388124466,
				-0.8948498964309692,
				0.4040412902832031,
				0.16557468473911285
			],
			"scale":[
				13.052290916442871,
				10.442566871643066,
				9.974270820617676
			],
			"translation":[
				-7.643241882324219,
				20.226316452026367,
				-6.526390075683594
			]
		},
		{
			"mesh":11,
			"name":"Retopo_3DModel_mesh.105",
			"rotation":[
				0.19807347655296326,
				0.8315477967262268,
				-0.36056458950042725,
				0.3732135593891144
			],
			"scale":[
				12.327356338500977,
				10.962162017822266,
				10.332612037658691
			],
			"translation":[
				10.2156400680542,
				18.121807098388672,
				-7.937645435333252
			]
		},
		{
			"mesh":11,
			"name":"Retopo_3DModel_mesh.106",
			"rotation":[
				0.34313929080963135,
				0.6431267261505127,
				-0.3836843967437744,
				0.5669477581977844
			],
			"scale":[
				11.342607498168945,
				12.501235008239746,
				9.693292617797852
			],
			"translation":[
				12.759027481079102,
				16.034177780151367,
				6.053884506225586
			]
		},
		{
			"mesh":11,
			"name":"Retopo_3DModel_mesh.107",
			"rotation":[
				0.002383340150117874,
				-0.8985626697540283,
				0.438821017742157,
				0.003972009290009737
			],
			"scale":[
				13.260961532592773,
				10.418671607971191,
				9.720792770385742
			],
			"translation":[
				1.910868763923645,
				20.92634391784668,
				-5.966397762298584
			]
		},
		{
			"mesh":11,
			"name":"Retopo_3DModel_mesh.108",
			"rotation":[
				0.05908728018403053,
				-0.8985562920570374,
				0.4227762818336487,
				0.1018112376332283
			],
			"scale":[
				13.179688453674316,
				10.417156219482422,
				9.832317352294922
			],
			"translation":[
				-6.364309310913086,
				21.540021896362305,
				-5.311208724975586
			]
		},
		{
			"mesh":11,
			"name":"Retopo_3DModel_mesh.109",
			"rotation":[
				0.43402421474456787,
				0.005436396691948175,
				-0.0032250420190393925,
				0.9008790254592896
			],
			"scale":[
				13.260848999023438,
				10.391149520874023,
				9.750356674194336
			],
			"translation":[
				-3.786858081817627,
				20.442401885986328,
				6.273331165313721
			]
		},
		{
			"mesh":11,
			"name":"Retopo_3DModel_mesh.110",
			"rotation":[
				0.345615416765213,
				-0.6471813917160034,
				0.3910785913467407,
				0.5556651949882507
			],
			"scale":[
				11.337976455688477,
				12.553827285766602,
				9.630539894104004
			],
			"translation":[
				-10.706002235412598,
				19.109283447265625,
				3.0978763103485107
			]
		},
		{
			"mesh":11,
			"name":"Retopo_3DModel_mesh.111",
			"rotation":[
				0.19461198151111603,
				0.8333287835121155,
				-0.3752911388874054,
				0.35615426301956177
			],
			"scale":[
				12.390432357788086,
				11.009921073913574,
				10.205609321594238
			],
			"translation":[
				8.083195686340332,
				21.253616333007812,
				-4.897902965545654
			]
		},
		{
			"mesh":11,
			"name":"Retopo_3DModel_mesh.112",
			"rotation":[
				0.00013118921197019517,
				-0.8965763449668884,
				0.44288912415504456,
				0.0002164911275031045
			],
			"scale":[
				13.261090278625488,
				10.441817283630371,
				9.695755004882812
			],
			"translation":[
				5.630562782287598,
				16.170804977416992,
				-10.681843757629395
			]
		},
		{
			"mesh":11,
			"name":"Retopo_3DModel_mesh.113",
			"rotation":[
				0.17237982153892517,
				0.8478089570999146,
				-0.4002413749694824,
				0.30217885971069336
			],
			"scale":[
				12.59942626953125,
				10.94974422454834,
				10.012660026550293
			],
			"translation":[
				7.2942609786987305,
				22.4191837310791,
				-3.937365770339966
			]
		},
		{
			"mesh":11,
			"name":"Retopo_3DModel_mesh.114",
			"rotation":[
				0.00021172541892156005,
				0.8970766067504883,
				-0.4418748915195465,
				0.0003502656181808561
			],
			"scale":[
				13.261089324951172,
				10.43602466583252,
				9.701991081237793
			],
			"translation":[
				-1.2093411684036255,
				18.78386878967285,
				-8.100015640258789
			]
		},
		{
			"mesh":11,
			"name":"Retopo_3DModel_mesh.115",
			"rotation":[
				0.39331555366516113,
				-0.5479183197021484,
				0.33817553520202637,
				0.6562970280647278
			],
			"scale":[
				11.335368156433105,
				12.526362419128418,
				9.66929817199707
			],
			"translation":[
				-12.243476867675781,
				16.821775436401367,
				-2.1971182823181152
			]
		},
		{
			"mesh":11,
			"name":"Retopo_3DModel_mesh.116",
			"rotation":[
				0.4376174211502075,
				-0.0004404638893902302,
				0.0002635368728078902,
				0.899161159992218
			],
			"scale":[
				13.26108455657959,
				10.411606788635254,
				9.728187561035156
			],
			"translation":[
				1.4870480298995972,
				17.692419052124023,
				9.072715759277344
			]
		},
		{
			"mesh":11,
			"name":"Retopo_3DModel_mesh.117",
			"rotation":[
				0.11596755683422089,
				0.8871256709098816,
				-0.3939013183116913,
				0.21071623265743256
			],
			"scale":[
				12.93007755279541,
				10.511385917663574,
				10.060790061950684
			],
			"translation":[
				10.62690258026123,
				16.13080406188965,
				-10.454458236694336
			]
		},
		{
			"mesh":11,
			"name":"Retopo_3DModel_mesh.118",
			"rotation":[
				0.393217533826828,
				0.5480289459228516,
				-0.3380691111087799,
				0.6563182473182678
			],
			"scale":[
				11.335378646850586,
				12.525300025939941,
				9.670656204223633
			],
			"translation":[
				12.180853843688965,
				16.914146423339844,
				-2.1312575340270996
			]
		},
		{
			"mesh":11,
			"name":"Retopo_3DModel_mesh.119",
			"rotation":[
				0.3358679413795471,
				0.6600931286811829,
				-0.39522066712379456,
				0.5433878898620605
			],
			"scale":[
				11.334758758544922,
				12.523563385009766,
				9.673635482788086
			],
			"translation":[
				12.060728073120117,
				17.088003158569336,
				1.0477371215820312
			]
		},
		{
			"mesh":11,
			"name":"Retopo_3DModel_mesh.120",
			"rotation":[
				0.42571794986724854,
				0.0011888815788552165,
				-0.0006914330297149718,
				0.9048548936843872
			],
			"scale":[
				13.261075973510742,
				10.342586517333984,
				9.80154800415039
			],
			"translation":[
				-0.6654431223869324,
				21.06298065185547,
				5.59793758392334
			]
		},
		{
			"mesh":11,
			"name":"Retopo_3DModel_mesh.121",
			"rotation":[
				0.3893897235393524,
				0.556337296962738,
				-0.3413863182067871,
				0.6498615145683289
			],
			"scale":[
				11.337717056274414,
				12.523051261901855,
				9.670831680297852
			],
			"translation":[
				12.10928726196289,
				17.022071838378906,
				-4.2227301597595215
			]
		},
		{
			"mesh":11,
			"name":"Retopo_3DModel_mesh.122",
			"rotation":[
				0.0004295908147469163,
				0.8967955112457275,
				-0.44244447350502014,
				0.000709863321390003
			],
			"scale":[
				13.26108455657959,
				10.439282417297363,
				9.698488235473633
			],
			"translation":[
				-4.9022297859191895,
				18.664024353027344,
				-8.221685409545898
			]
		},
		{
			"mesh":11,
			"name":"Retopo_3DModel_mesh.123",
			"rotation":[
				0.00047695799730718136,
				-0.89732825756073,
				0.4413630962371826,
				0.0007900181808508933
			],
			"scale":[
				13.26108169555664,
				10.433100700378418,
				9.705137252807617
			],
			"translation":[
				1.9455586671829224,
				19.384166717529297,
				-7.504059791564941
			]
		},
		{
			"mesh":11,
			"name":"Retopo_3DModel_mesh.124",
			"rotation":[
				0.0009062882163561881,
				-0.8967766761779785,
				0.4424799978733063,
				0.001497286488302052
			],
			"scale":[
				13.261067390441895,
				10.43950080871582,
				9.69826889038086
			],
			"translation":[
				-6.348066329956055,
				16.17498779296875,
				-10.678020477294922
			]
		},
		{
			"mesh":11,
			"name":"Retopo_3DModel_mesh.125",
			"rotation":[
				0.4381256103515625,
				-0.0006685722037218511,
				0.0004005014488939196,
				0.8989134430885315
			],
			"scale":[
				13.261082649230957,
				10.414532661437988,
				9.725058555603027
			],
			"translation":[
				3.553223133087158,
				17.465539932250977,
				9.303874969482422
			]
		},
		{
			"mesh":11,
			"name":"Retopo_3DModel_mesh.126",
			"rotation":[
				0.33878377079963684,
				0.6543618440628052,
				-0.39170804619789124,
				0.5509999394416809
			],
			"scale":[
				11.335996627807617,
				12.521393775939941,
				9.674993515014648
			],
			"translation":[
				11.908295631408691,
				17.311796188354492,
				3.0115644931793213
			]
		},
		{
			"mesh":11,
			"name":"Retopo_3DModel_mesh.127",
			"rotation":[
				0.3398871421813965,
				-0.6524245142936707,
				0.39068323373794556,
				0.5533404350280762
			],
			"scale":[
				11.33665943145752,
				12.521933555603027,
				9.673516273498535
			],
			"translation":[
				-11.97308349609375,
				17.215238571166992,
				3.615614652633667
			]
		},
		{
			"mesh":11,
			"name":"Retopo_3DModel_mesh.128",
			"rotation":[
				0.34272271394729614,
				0.6470036506652832,
				-0.38759467005729675,
				0.5600874423980713
			],
			"scale":[
				11.339282035827637,
				12.520489692687988,
				9.672313690185547
			],
			"translation":[
				11.63430404663086,
				17.719541549682617,
				4.621150970458984
			]
		},
		{
			"mesh":11,
			"name":"Retopo_3DModel_mesh.129",
			"rotation":[
				0.3945675194263458,
				-0.10934673249721527,
				0.05933067575097084,
				0.9104064106941223
			],
			"scale":[
				13.169968605041504,
				10.25318717956543,
				10.015970230102539
			],
			"translation":[
				2.9922173023223877,
				24.719730377197266,
				1.6872286796569824
			]
		},
		{
			"mesh":11,
			"name":"Retopo_3DModel_mesh.130",
			"rotation":[
				0.42586278915405273,
				-0.011379056610167027,
				0.0066205644980072975,
				0.9046921133995056
			],
			"scale":[
				13.26006031036377,
				10.344575881958008,
				9.800821304321289
			],
			"translation":[
				1.3656558990478516,
				21.429513931274414,
				5.2228288650512695
			]
		},
		{
			"mesh":11,
			"name":"Retopo_3DModel_mesh.131",
			"rotation":[
				0.03494700789451599,
				0.9056827425956726,
				-0.41807377338409424,
				0.06109026446938515
			],
			"scale":[
				13.231825828552246,
				10.330132484436035,
				9.854084014892578
			],
			"translation":[
				-2.9634997844696045,
				24.017929077148438,
				-2.840595245361328
			]
		},
		{
			"mesh":11,
			"name":"Retopo_3DModel_mesh.132",
			"rotation":[
				0.34462904930114746,
				-0.6435674428939819,
				0.3858053386211395,
				0.5640976428985596
			],
			"scale":[
				11.341400146484375,
				12.5206937789917,
				9.669564247131348
			],
			"translation":[
				-11.686277389526367,
				17.642013549804688,
				5.59093713760376
			]
		},
		{
			"mesh":11,
			"name":"Retopo_3DModel_mesh.133",
			"rotation":[
				0.2214071899652481,
				-0.8072513937950134,
				0.3551079332828522,
				0.4161999225616455
			],
			"scale":[
				12.141830444335938,
				11.153465270996094,
				10.347558975219727
			],
			"translation":[
				-11.58031177520752,
				16.45406723022461,
				-9.325363159179688
			]
		},
		{
			"mesh":11,
			"name":"Retopo_3DModel_mesh.134",
			"rotation":[
				9.109193342737854e-06,
				0.8967891335487366,
				-0.44245845079421997,
				1.4997526704974007e-05
			],
			"scale":[
				13.261088371276855,
				10.439356803894043,
				9.69840145111084
			],
			"translation":[
				-0.06800510734319687,
				17.42499351501465,
				-9.443385124206543
			]
		},
		{
			"mesh":11,
			"name":"Retopo_3DModel_mesh.135",
			"rotation":[
				0.3892972767353058,
				0.557099461555481,
				-0.3425477147102356,
				0.6486517190933228
			],
			"scale":[
				11.338116645812988,
				12.52863883972168,
				9.663125038146973
			],
			"translation":[
				10.650971412658691,
				19.161022186279297,
				-2.5200986862182617
			]
		},
		{
			"mesh":11,
			"name":"Retopo_3DModel_mesh.136",
			"rotation":[
				0.39628639817237854,
				0.5408791899681091,
				-0.3346497118473053,
				0.6621302366256714
			],
			"scale":[
				11.334634780883789,
				12.52225112915039,
				9.675474166870117
			],
			"translation":[
				11.122384071350098,
				18.47465705871582,
				0.1524762660264969
			]
		},
		{
			"mesh":11,
			"name":"Retopo_3DModel_mesh.137",
			"rotation":[
				0.3366302251815796,
				-0.6581416726112366,
				0.3937418460845947,
				0.5463488101959229
			],
			"scale":[
				11.335067749023438,
				12.520268440246582,
				9.677534103393555
			],
			"translation":[
				-11.802801132202148,
				17.469043731689453,
				1.8512884378433228
			]
		},
		{
			"mesh":11,
			"name":"Retopo_3DModel_mesh.138",
			"rotation":[
				0.24174083769321442,
				-0.783217191696167,
				0.3480733036994934,
				0.45494741201400757
			],
			"scale":[
				11.97626781463623,
				11.315378189086914,
				10.364686965942383
			],
			"translation":[
				-10.828879356384277,
				17.839519500732422,
				-7.785773277282715
			]
		},
		{
			"mesh":11,
			"name":"Retopo_3DModel_mesh.139",
			"rotation":[
				0.38602414727211,
				0.5635330677032471,
				-0.34424644708633423,
				0.6441352367401123
			],
			"scale":[
				11.341059684753418,
				12.519911766052246,
				9.670982360839844
			],
			"translation":[
				10.908065795898438,
				18.78706932067871,
				-4.343137264251709
			]
		},
		{
			"mesh":11,
			"name":"Retopo_3DModel_mesh.140",
			"rotation":[
				0.43834954500198364,
				-0.0011365431128069758,
				0.0006811977364122868,
				0.8988035917282104
			],
			"scale":[
				13.261075973510742,
				10.415827751159668,
				9.723679542541504
			],
			"translation":[
				-6.056344032287598,
				16.848857879638672,
				9.927416801452637
			]
		},
		{
			"mesh":11,
			"name":"Retopo_3DModel_mesh.141",
			"rotation":[
				0.4381968379020691,
				-0.004580579232424498,
				0.002744440920650959,
				0.8988631963729858
			],
			"scale":[
				13.260917663574219,
				10.41513442993164,
				9.724639892578125
			],
			"translation":[
				-6.798496246337891,
				15.651429176330566,
				11.127753257751465
			]
		},
		{
			"mesh":11,
			"name":"Retopo_3DModel_mesh.142",
			"rotation":[
				0.3879128694534302,
				0.6176142692565918,
				-0.4082736372947693,
				0.5489891171455383
			],
			"scale":[
				11.340807914733887,
				12.82823371887207,
				9.258408546447754
			],
			"translation":[
				9.47622013092041,
				21.291854858398438,
				2.1487245559692383
			]
		},
		{
			"mesh":11,
			"name":"Retopo_3DModel_mesh.143",
			"rotation":[
				0.3663865327835083,
				0.6043601036071777,
				-0.3672413229942322,
				0.6046847105026245
			],
			"scale":[
				11.3884859085083,
				12.516900062561035,
				9.619002342224121
			],
			"translation":[
				9.883137702941895,
				20.350616455078125,
				3.5769615173339844
			]
		},
		{
			"mesh":11,
			"name":"Retopo_3DModel_mesh.144",
			"rotation":[
				0.43348249793052673,
				-0.01116219349205494,
				0.006613529287278652,
				0.9010685682296753
			],
			"scale":[
				13.260089874267578,
				10.388886451721191,
				9.753800392150879
			],
			"translation":[
				-5.765685081481934,
				19.055068969726562,
				7.697796821594238
			]
		},
		{
			"mesh":11,
			"name":"Retopo_3DModel_mesh.145",
			"rotation":[
				0.3440001606941223,
				0.6016837954521179,
				-0.3442976474761963,
				0.6333242654800415
			],
			"scale":[
				11.421733856201172,
				12.243742942810059,
				9.926244735717773
			],
			"translation":[
				10.62415885925293,
				19.07284164428711,
				5.112588882446289
			]
		},
		{
			"mesh":11,
			"name":"Retopo_3DModel_mesh.146",
			"rotation":[
				0.3418382704257965,
				0.6546853184700012,
				-0.39566370844841003,
				0.545879065990448
			],
			"scale":[
				11.33524227142334,
				12.557374000549316,
				9.629137992858887
			],
			"translation":[
				10.530855178833008,
				19.36458969116211,
				1.3086169958114624
			]
		},
		{
			"mesh":11,
			"name":"Retopo_3DModel_mesh.147",
			"rotation":[
				0.34026914834976196,
				0.6530115604400635,
				-0.39181292057037354,
				0.5516118407249451
			],
			"scale":[
				11.336252212524414,
				12.529786109924316,
				9.663822174072266
			],
			"translation":[
				11.031962394714355,
				18.61107635498047,
				2.7597625255584717
			]
		},
		{
			"mesh":11,
			"name":"Retopo_3DModel_mesh.148",
			"rotation":[
				0.2002807855606079,
				-0.8293824195861816,
				0.3601533770561218,
				0.37722936272621155
			],
			"scale":[
				12.310126304626465,
				10.980293273925781,
				10.333911895751953
			],
			"translation":[
				-9.486525535583496,
				19.225093841552734,
				-6.831033229827881
			]
		},
		{
			"mesh":11,
			"name":"Retopo_3DModel_mesh.149",
			"rotation":[
				0.33973488211631775,
				0.6129569411277771,
				-0.35056620836257935,
				0.6212626695632935
			],
			"scale":[
				11.398119926452637,
				12.268241882324219,
				9.923138618469238
			],
			"translation":[
				11.685379981994629,
				17.510181427001953,
				6.538071632385254
			]
		},
		{
			"mesh":11,
			"name":"Retopo_3DModel_mesh.150",
			"rotation":[
				0.23377148807048798,
				-0.793219268321991,
				0.35931333899497986,
				0.4324905574321747
			],
			"scale":[
				12.065202713012695,
				11.296738624572754,
				10.281542778015137
			],
			"translation":[
				-8.77702808380127,
				20.76352882385254,
				-4.994984149932861
			]
		},
		{
			"mesh":11,
			"name":"Retopo_3DModel_mesh.151",
			"rotation":[
				0.016257479786872864,
				-0.8992998600006104,
				0.4361795485019684,
				0.0272555872797966
			],
			"scale":[
				13.255130767822266,
				10.410199165344238,
				9.737812995910645
			],
			"translation":[
				-8.22926139831543,
				15.781502723693848,
				-11.06641960144043
			]
		},
		{
			"mesh":11,
			"name":"Retopo_3DModel_mesh.152",
			"rotation":[
				0.2239655703306198,
				-0.8032544851303101,
				0.38386720418930054,
				0.3965698480606079
			],
			"scale":[
				12.201834678649902,
				11.327237129211426,
				10.084859848022461
			],
			"translation":[
				-7.924158096313477,
				22.143047332763672,
				-3.729069709777832
			]
		},
		{
			"mesh":11,
			"name":"Retopo_3DModel_mesh.153",
			"rotation":[
				0.00010358747385907918,
				-0.8966220021247864,
				0.4427967965602875,
				0.00017096035298891366
			],
			"scale":[
				13.261090278625488,
				10.441288948059082,
				9.696322441101074
			],
			"translation":[
				3.4990780353546143,
				16.3696346282959,
				-10.485260963439941
			]
		},
		{
			"mesh":11,
			"name":"Retopo_3DModel_mesh.154",
			"rotation":[
				0.39043349027633667,
				0.5661118030548096,
				-0.36445754766464233,
				0.6278932690620422
			],
			"scale":[
				11.346522331237793,
				12.642927169799805,
				9.503073692321777
			],
			"translation":[
				9.67663288116455,
				20.63648796081543,
				-2.555868148803711
			]
		},
		{
			"mesh":11,
			"name":"Retopo_3DModel_mesh.155",
			"rotation":[
				0.011172626167535782,
				0.897731602191925,
				-0.44000962376594543,
				0.018564652651548386
			],
			"scale":[
				13.258309364318848,
				10.42857551574707,
				9.713787078857422
			],
			"translation":[
				-3.7175652980804443,
				22.720006942749023,
				-4.211219310760498
			]
		},
		{
			"mesh":11,
			"name":"Retopo_3DModel_mesh.156",
			"rotation":[
				0.41837945580482483,
				-0.04575750604271889,
				0.02617424912750721,
				0.9067414402961731
			],
			"scale":[
				13.244647026062012,
				10.31770133972168,
				9.849868774414062
			],
			"translation":[
				-5.811468601226807,
				24.187307357788086,
				2.548170566558838
			]
		},
		{
			"mesh":11,
			"name":"Retopo_3DModel_mesh.157",
			"rotation":[
				0.00019118092313874513,
				0.8968127369880676,
				-0.4424102306365967,
				0.00031598005443811417
			],
			"scale":[
				13.261087417602539,
				10.439082145690918,
				9.69869613647461
			],
			"translation":[
				-2.3644797801971436,
				17.743112564086914,
				-9.12948989868164
			]
		},
		{
			"mesh":11,
			"name":"Retopo_3DModel_mesh.158",
			"rotation":[
				0.40289106965065,
				0.5452476143836975,
				-0.3635077178478241,
				0.6389414072036743
			],
			"scale":[
				11.336548805236816,
				12.698670387268066,
				9.44044303894043
			],
			"translation":[
				9.633061408996582,
				20.77340316772461,
				-0.6397966146469116
			]
		},
		{
			"mesh":11,
			"name":"Retopo_3DModel_mesh.159",
			"rotation":[
				0.4302721917629242,
				-0.12862324714660645,
				0.07620768994092941,
				0.8902327418327332
			],
			"scale":[
				13.130478858947754,
				10.519726753234863,
				9.788844108581543
			],
			"translation":[
				-6.5984039306640625,
				23.089717864990234,
				3.5590789318084717
			]
		},
		{
			"mesh":11,
			"name":"Retopo_3DModel_mesh.160",
			"rotation":[
				0.43901360034942627,
				0.00043837763951160014,
				-0.0002631606184877455,
				0.8984802961349487
			],
			"scale":[
				13.26108455657959,
				10.419631958007812,
				9.71959114074707
			],
			"translation":[
				-3.609358549118042,
				16.251489639282227,
				10.523548126220703
			]
		},
		{
			"mesh":11,
			"name":"Retopo_3DModel_mesh.161",
			"rotation":[
				0.4251534342765808,
				-0.13899840414524078,
				0.08146470040082932,
				0.8906670212745667
			],
			"scale":[
				13.109737396240234,
				10.512205123901367,
				9.824658393859863
			],
			"translation":[
				-6.872041702270508,
				21.634687423706055,
				4.959344863891602
			]
		},
		{
			"mesh":11,
			"name":"Retopo_3DModel_mesh.162",
			"rotation":[
				0.4362528324127197,
				0.00112120748963207,
				-0.0006686637061648071,
				0.8998231887817383
			],
			"scale":[
				13.261076927185059,
				10.40375804901123,
				9.736592292785645
			],
			"translation":[
				-3.003873825073242,
				18.74976921081543,
				8.003681182861328
			]
		},
		{
			"mesh":12,
			"name":"Arm Spindles"
		},
		{
			"mesh":13,
			"name":"Arms"
		},
		{
			"mesh":14,
			"name":"Back Spindles"
		},
		{
			"mesh":15,
			"name":"Legs"
		},
		{
			"mesh":16,
			"name":"Rail"
		},
		{
			"mesh":17,
			"name":"Rockers"
		},
		{
			"children":[
				175,
				176,
				177,
				178,
				179,
				180
			],
			"mesh":18,
			"name":"Seat",
			"rotation":[
				0,
				0.3143893778324127,
				0,
				0.9492942094802856
			],
			"scale":[
				7.394845962524414,
				7.394846439361572,
				7.394845962524414
			],
			"translation":[
				-8.008560180664062,
				0.531650185585022,
				-5.291579246520996
			]
		},
		{
			"mesh":11,
			"name":"Retopo_3DModel_mesh"
		}
	],
	"materials":[
		{
			"doubleSided":true,
			"extensions":{
				"KHR_materials_unlit":{}
			},
			"name":"Moss Bark",
			"pbrMetallicRoughness":{
				"baseColorTexture":{
					"index":0
				},
				"metallicFactor":0,
				"roughnessFactor":0.9
			}
		},
		{
			"doubleSided":true,
			"extensions":{
				"KHR_materials_unlit":{}
			},
			"name":"Polished Oak Wood",
			"pbrMetallicRoughness":{
				"baseColorTexture":{
					"extensions":{
						"KHR_texture_transform":{
							"offset":[
								0,
								-9
							],
							"scale":[
								10,
								10
							]
						}
					},
					"index":1
				},
				"metallicFactor":0,
				"roughnessFactor":0.9
			}
		},
		{
			"doubleSided":true,
			"extensions":{
				"KHR_materials_unlit":{}
			},
			"name":"Wall paper",
			"pbrMetallicRoughness":{
				"baseColorTexture":{
					"index":2,
					"texCoord":1
				},
				"metallicFactor":0,
				"roughnessFactor":0.9
			}
		},
		{
			"doubleSided":true,
			"extensions":{
				"KHR_materials_unlit":{}
			},
			"name":"Wood floor procedural.001",
			"pbrMetallicRoughness":{
				"metallicFactor":0,
				"roughnessFactor":0.9
			}
		},
		{
			"doubleSided":true,
			"extensions":{
				"KHR_materials_unlit":{}
			},
			"name":"Stone Wall",
			"pbrMetallicRoughness":{
				"baseColorTexture":{
					"extensions":{
						"KHR_texture_transform":{
							"offset":[
								0,
								-9
							],
							"scale":[
								20,
								10
							]
						}
					},
					"index":3,
					"texCoord":1
				},
				"metallicFactor":0,
				"roughnessFactor":0.9
			}
		},
		{
			"doubleSided":true,
			"extensions":{
				"KHR_materials_unlit":{}
			},
			"name":"Procedural Wood",
			"pbrMetallicRoughness":{
				"metallicFactor":0,
				"roughnessFactor":0.9
			}
		},
		{
			"doubleSided":true,
			"extensions":{
				"KHR_materials_unlit":{}
			},
			"name":"Material",
			"pbrMetallicRoughness":{
				"baseColorTexture":{
					"index":4
				},
				"metallicFactor":0,
				"roughnessFactor":0.9
			}
		},
		{
			"doubleSided":true,
			"name":"Old Metal"
		},
		{
			"doubleSided":true,
			"extensions":{
				"KHR_materials_unlit":{}
			},
			"name":"3DModel_Custom",
			"pbrMetallicRoughness":{
				"baseColorTexture":{
					"index":5
				},
				"metallicFactor":0,
				"roughnessFactor":0.9
			}
		}
	],
	"meshes":[
		{
			"name":"Cylinder",
			"primitives":[
				{
					"attributes":{
						"POSITION":0,
						"NORMAL":1,
						"TEXCOORD_0":2
					},
					"indices":3,
					"material":0
				}
			]
		},
		{
			"name":"Cylinder.004",
			"primitives":[
				{
					"attributes":{
						"POSITION":4,
						"NORMAL":5,
						"TEXCOORD_0":6
					},
					"indices":7,
					"material":0
				}
			]
		},
		{
			"name":"Torus",
			"primitives":[
				{
					"attributes":{
						"POSITION":8,
						"NORMAL":9,
						"TEXCOORD_0":10
					},
					"indices":11,
					"material":1
				}
			]
		},
		{
			"name":"Cube",
			"primitives":[
				{
					"attributes":{
						"POSITION":12,
						"NORMAL":13,
						"TEXCOORD_0":14
					},
					"indices":15,
					"material":1
				}
			]
		},
		{
			"name":"Cube.001",
			"primitives":[
				{
					"attributes":{
						"POSITION":16,
						"NORMAL":17,
						"TEXCOORD_0":18,
						"TEXCOORD_1":19
					},
					"indices":20,
					"material":2
				}
			]
		},
		{
			"name":"Cube.002",
			"primitives":[
				{
					"attributes":{
						"POSITION":21,
						"NORMAL":22,
						"TEXCOORD_0":23
					},
					"indices":24,
					"material":3
				}
			]
		},
		{
			"name":"Cube.003",
			"primitives":[
				{
					"attributes":{
						"POSITION":25,
						"NORMAL":26,
						"TEXCOORD_0":27,
						"TEXCOORD_1":28
					},
					"indices":29,
					"material":4
				}
			]
		},
		{
			"name":"Torus.002",
			"primitives":[
				{
					"attributes":{
						"POSITION":30,
						"NORMAL":31,
						"TEXCOORD_0":32
					},
					"indices":33,
					"material":5
				}
			]
		},
		{
			"name":"Torus.003",
			"primitives":[
				{
					"attributes":{
						"POSITION":34,
						"NORMAL":35,
						"TEXCOORD_0":36
					},
					"indices":24,
					"material":6
				}
			]
		},
		{
			"name":"Cube.004",
			"primitives":[
				{
					"attributes":{
						"POSITION":37,
						"NORMAL":38,
						"TEXCOORD_0":39
					},
					"indices":40,
					"material":7
				}
			]
		},
		{
			"name":"Plane",
			"primitives":[
				{
					"attributes":{
						"POSITION":41,
						"NORMAL":42,
						"TEXCOORD_0":43,
						"TEXCOORD_1":44
					},
					"indices":45,
					"material":7
				}
			]
		},
		{
			"name":"Retopo_3DModel_mesh",
			"primitives":[
				{
					"attributes":{
						"POSITION":46,
						"NORMAL":47,
						"TEXCOORD_0":48
					},
					"indices":49,
					"material":8
				},
				{
					"attributes":{
						"POSITION":50,
						"NORMAL":51,
						"TEXCOORD_0":52
					},
					"indices":53,
					"material":8
				}
			]
		},
		{
			"name":"Cylinder.057",
			"primitives":[
				{
					"attributes":{
						"POSITION":54,
						"NORMAL":55,
						"TEXCOORD_0":56
					},
					"indices":57,
					"material":5
				}
			]
		},
		{
			"name":"Mesh.021",
			"primitives":[
				{
					"attributes":{
						"POSITION":58,
						"NORMAL":59,
						"TEXCOORD_0":60
					},
					"indices":61,
					"material":5
				}
			]
		},
		{
			"name":"Cylinder.062",
			"primitives":[
				{
					"attributes":{
						"POSITION":62,
						"NORMAL":63,
						"TEXCOORD_0":64
					},
					"indices":65,
					"material":5
				}
			]
		},
		{
			"name":"Cylinder.059",
			"primitives":[
				{
					"attributes":{
						"POSITION":66,
						"NORMAL":67,
						"TEXCOORD_0":68
					},
					"indices":69,
					"material":5
				}
			]
		},
		{
			"name":"Mesh.020",
			"primitives":[
				{
					"attributes":{
						"POSITION":70,
						"NORMAL":71,
						"TEXCOORD_0":72,
						"TEXCOORD_1":73
					},
					"indices":74,
					"material":5
				}
			]
		},
		{
			"name":"Mesh.018",
			"primitives":[
				{
					"attributes":{
						"POSITION":75,
						"NORMAL":76,
						"TEXCOORD_0":77
					},
					"indices":78,
					"material":5
				}
			]
		},
		{
			"name":"Mesh.019",
			"primitives":[
				{
					"attributes":{
						"POSITION":79,
						"NORMAL":80,
						"TEXCOORD_0":81,
						"TEXCOORD_1":82
					},
					"indices":83,
					"material":5
				}
			]
		}
	],
	"textures":[
		{
			"sampler":0,
			"source":0
		},
		{
			"sampler":0,
			"source":1
		},
		{
			"sampler":0,
			"source":2
		},
		{
			"sampler":0,
			"source":3
		},
		{
			"sampler":0,
			"source":4
		},
		{
			"sampler":0,
			"source":5
		}
	],
	"images":[
		{
			"mimeType":"image/jpeg",
			"name":"Moss Bark_BaseColor.jpg",
			"uri":"textures/Moss%20Bark_BaseColor.jpg"
		},
		{
			"mimeType":"image/jpeg",
			"name":"Wood_Diffuse2.jpg",
			"uri":"textures/Wood_Diffuse2.jpg"
		},
		{
			"mimeType":"image/png",
			"name":"wall_paper_BaseColor.png",
			"uri":"textures/wall_paper_BaseColor.png"
		},
		{
			"mimeType":"image/jpeg",
			"name":"wall_stone_8_diffuse_xtm.jpg",
			"uri":"textures/wall_stone_8_diffuse_xtm.jpg"
		},
		{
			"mimeType":"image/png",
			"name":"Forest_carde_chalet.png.001",
			"uri":"textures/Forest_carde_chalet.png"
		},
		{
			"mimeType":"image/jpeg",
			"name":"3DModel_Custom.jpg",
			"uri":"textures/3DModel_Custom.jpg"
		}
	],
	"accessors":[
		{
			"bufferView":0,
			"componentType":5126,
			"count":3136,
			"max":[
				15.97167682647705,
				16.000019073486328,
				12.671488761901855
			],
			"min":[
				-15.97167682647705,
				-9.5367431640625e-07,
				-12.671488761901855
			],
			"type":"VEC3"
		},
		{
			"bufferView":1,
			"componentType":5126,
			"count":3136,
			"type":"VEC3"
		},
		{
			"bufferView":2,
			"componentType":5126,
			"count":3136,
			"type":"VEC2"
		},
		{
			"bufferView":3,
			"componentType":5123,
			"count":12000,
			"type":"SCALAR"
		},
		{
			"bufferView":4,
			"componentType":5126,
			"count":2080,
			"max":[
				15.97167682647705,
				16.000019073486328,
				14.746758460998535
			],
			"min":[
				-15.97167682647705,
				-9.5367431640625e-07,
				-14.746758460998535
			],
			"type":"VEC3"
		},
		{
			"bufferView":5,
			"componentType":5126,
			"count":2080,
			"type":"VEC3"
		},
		{
			"bufferView":6,
			"componentType":5126,
			"count":2080,
			"type":"VEC2"
		},
		{
			"bufferView":7,
			"componentType":5123,
			"count":5952,
			"type":"SCALAR"
		},
		{
			"bufferView":8,
			"componentType":5126,
			"count":80,
			"max":[
				1.25,
				0.21650634706020355,
				1.25
			],
			"min":[
				-1.25,
				-0.21650634706020355,
				-1.25
			],
			"type":"VEC3"
		},
		{
			"bufferView":9,
			"componentType":5126,
			"count":80,
			"type":"VEC3"
		},
		{
			"bufferView":10,
			"componentType":5126,
			"count":80,
			"type":"VEC2"
		},
		{
			"bufferView":11,
			"componentType":5123,
			"count":144,
			"type":"SCALAR"
		},
		{
			"bufferView":12,
			"componentType":5126,
			"count":934,
			"max":[
				1.0000005960464478,
				1.0303751230239868,
				0.9999986886978149
			],
			"min":[
				-1.0000004768371582,
				-0.9327245354652405,
				-1.000002384185791
			],
			"type":"VEC3"
		},
		{
			"bufferView":13,
			"componentType":5126,
			"count":934,
			"type":"VEC3"
		},
		{
			"bufferView":14,
			"componentType":5126,
			"count":934,
			"type":"VEC2"
		},
		{
			"bufferView":15,
			"componentType":5123,
			"count":3804,
			"type":"SCALAR"
		},
		{
			"bufferView":16,
			"componentType":5126,
			"count":140,
			"max":[
				1,
				0.8774967193603516,
				1.1519722938537598
			],
			"min":[
				-1,
				-1,
				-1
			],
			"type":"VEC3"
		},
		{
			"bufferView":17,
			"componentType":5126,
			"count":140,
			"type":"VEC3"
		},
		{
			"bufferView":18,
			"componentType":5126,
			"count":140,
			"type":"VEC2"
		},
		{
			"bufferView":19,
			"componentType":5126,
			"count":140,
			"type":"VEC2"
		},
		{
			"bufferView":20,
			"componentType":5123,
			"count":414,
			"type":"SCALAR"
		},
		{
			"bufferView":21,
			"componentType":5126,
			"count":4,
			"max":[
				1,
				-1,
				1
			],
			"min":[
				-1,
				-1,
				-1
			],
			"type":"VEC3"
		},
		{
			"bufferView":22,
			"componentType":5126,
			"count":4,
			"type":"VEC3"
		},
		{
			"bufferView":23,
			"componentType":5126,
			"count":4,
			"type":"VEC2"
		},
		{
			"bufferView":24,
			"componentType":5123,
			"count":6,
			"type":"SCALAR"
		},
		{
			"bufferView":25,
			"componentType":5126,
			"count":284,
			"max":[
				1,
				14.393468856811523,
				1
			],
			"min":[
				-1,
				-1,
				-1
			],
			"type":"VEC3"
		},
		{
			"bufferView":26,
			"componentType":5126,
			"count":284,
			"type":"VEC3"
		},
		{
			"bufferView":27,
			"componentType":5126,
			"count":284,
			"type":"VEC2"
		},
		{
			"bufferView":28,
			"componentType":5126,
			"count":284,
			"type":"VEC2"
		},
		{
			"bufferView":29,
			"componentType":5123,
			"count":1326,
			"type":"SCALAR"
		},
		{
			"bufferView":30,
			"componentType":5126,
			"count":48,
			"max":[
				2.5912811756134033,
				0.1767766773700714,
				0.5985966920852661
			],
			"min":[
				-0.8321067690849304,
				-0.1767767369747162,
				-1.6603240966796875
			],
			"type":"VEC3"
		},
		{
			"bufferView":31,
			"componentType":5126,
			"count":48,
			"type":"VEC3"
		},
		{
			"bufferView":32,
			"componentType":5126,
			"count":48,
			"type":"VEC2"
		},
		{
			"bufferView":33,
			"componentType":5123,
			"count":96,
			"type":"SCALAR"
		},
		{
			"bufferView":34,
			"componentType":5126,
			"count":4,
			"max":[
				2.3412811756134033,
				-0.1767767071723938,
				0.34859681129455566
			],
			"min":[
				-0.5821068286895752,
				-0.1767767369747162,
				-1.410324215888977
			],
			"type":"VEC3"
		},
		{
			"bufferView":35,
			"componentType":5126,
			"count":4,
			"type":"VEC3"
		},
		{
			"bufferView":36,
			"componentType":5126,
			"count":4,
			"type":"VEC2"
		},
		{
			"bufferView":37,
			"componentType":5126,
			"count":288,
			"max":[
				0.9910851716995239,
				1.201390266418457,
				0.9974802732467651
			],
			"min":[
				-0.9910850524902344,
				-0.0063300831243395805,
				-1.0033148527145386
			],
			"type":"VEC3"
		},
		{
			"bufferView":38,
			"componentType":5126,
			"count":288,
			"type":"VEC3"
		},
		{
			"bufferView":39,
			"componentType":5126,
			"count":288,
			"type":"VEC2"
		},
		{
			"bufferView":40,
			"componentType":5123,
			"count":1620,
			"type":"SCALAR"
		},
		{
			"bufferView":41,
			"componentType":5126,
			"count":198,
			"max":[
				1.0000001192092896,
				0.10996699333190918,
				0.9584034085273743
			],
			"min":[
				-1.0000001192092896,
				-0.48590174317359924,
				-0.9584034085273743
			],
			"type":"VEC3"
		},
		{
			"bufferView":42,
			"componentType":5126,
			"count":198,
			"type":"VEC3"
		},
		{
			"bufferView":43,
			"componentType":5126,
			"count":198,
			"type":"VEC2"
		},
		{
			"bufferView":44,
			"componentType":5126,
			"count":198,
			"type":"VEC2"
		},
		{
			"bufferView":45,
			"componentType":5123,
			"count":960,
			"type":"SCALAR"
		},
		{
			"bufferView":46,
			"componentType":5126,
			"count":12267,
			"max":[
				0.18700838088989258,
				0.10306797176599503,
				0.1860470473766327
			],
			"min":[
				-0.18355120718479156,
				-0.04759756103157997,
				-0.1837584525346756
			],
			"type":"VEC3"
		},
		{
			"bufferView":47,
			"componentType":5126,
			"count":12267,
			"type":"VEC3"
		},
		{
			"bufferView":48,
			"componentType":5126,
			"count":12267,
			"type":"VEC2"
		},
		{
			"bufferView":49,
			"componentType":5123,
			"count":61392,
			"type":"SCALAR"
		},
		{
			"bufferView":50,
			"componentType":5126,
			"count":274,
			"max":[
				0.18700838088989258,
				0.04985113814473152,
				0.1860470473766327
			],
			"min":[
				-0.18355120718479156,
				-0.04759756103157997,
				-0.1776365041732788
			],
			"type":"VEC3"
		},
		{
			"bufferView":51,
			"componentType":5126,
			"count":274,
			"type":"VEC3"
		},
		{
			"bufferView":52,
			"componentType":5126,
			"count":274,
			"type":"VEC2"
		},
		{
			"bufferView":53,
			"componentType":5123,
			"count":816,
			"type":"SCALAR"
		},
		{
			"bufferView":54,
			"componentType":5126,
			"count":5927,
			"max":[
				0.27809613943099976,
				0.9227713942527771,
				-0.003489833092316985
			],
			"min":[
				-0.27809613943099976,
				0.31435537338256836,
				-0.4747883677482605
			],
			"type":"VEC3"
		},
		{
			"bufferView":55,
			"componentType":5126,
			"count":5927,
			"type":"VEC3"
		},
		{
			"bufferView":56,
			"componentType":5126,
			"count":5927,
			"type":"VEC2"
		},
		{
			"bufferView":57,
			"componentType":5123,
			"count":28344,
			"type":"SCALAR"
		},
		{
			"bufferView":58,
			"componentType":5126,
			"count":1207,
			"max":[
				0.3011104464530945,
				0.6695024967193604,
				0.009251286275684834
			],
			"min":[
				-0.3011104166507721,
				0.5265565514564514,
				-0.3284297585487366
			],
			"type":"VEC3"
		},
		{
			"bufferView":59,
			"componentType":5126,
			"count":1207,
			"type":"VEC3"
		},
		{
			"bufferView":60,
			"componentType":5126,
			"count":1207,
			"type":"VEC2"
		},
		{
			"bufferView":61,
			"componentType":5123,
			"count":3600,
			"type":"SCALAR"
		},
		{
			"bufferView":62,
			"componentType":5126,
			"count":1344,
			"max":[
				0.19703353941440582,
				0.9227513670921326,
				-0.26762452721595764
			],
			"min":[
				-0.19703350961208344,
				0.2916114330291748,
				-0.4687421917915344
			],
			"type":"VEC3"
		},
		{
			"bufferView":63,
			"componentType":5126,
			"count":1344,
			"type":"VEC3"
		},
		{
			"bufferView":64,
			"componentType":5126,
			"count":1344,
			"type":"VEC2"
		},
		{
			"bufferView":65,
			"componentType":5123,
			"count":2604,
			"type":"SCALAR"
		},
		{
			"bufferView":66,
			"componentType":5126,
			"count":6578,
			"max":[
				0.23097485303878784,
				0.36590340733528137,
				0.1591300368309021
			],
			"min":[
				-0.23097485303878784,
				0.02515537291765213,
				-0.2893068492412567
			],
			"type":"VEC3"
		},
		{
			"bufferView":67,
			"componentType":5126,
			"count":6578,
			"type":"VEC3"
		},
		{
			"bufferView":68,
			"componentType":5126,
			"count":6578,
			"type":"VEC2"
		},
		{
			"bufferView":69,
			"componentType":5123,
			"count":32058,
			"type":"SCALAR"
		},
		{
			"bufferView":70,
			"componentType":5126,
			"count":1359,
			"max":[
				0.3049280345439911,
				0.979998767375946,
				-0.4447757601737976
			],
			"min":[
				-0.304671972990036,
				0.8827754855155945,
				-0.49675124883651733
			],
			"type":"VEC3"
		},
		{
			"bufferView":71,
			"componentType":5126,
			"count":1359,
			"type":"VEC3"
		},
		{
			"bufferView":72,
			"componentType":5126,
			"count":1359,
			"type":"VEC2"
		},
		{
			"bufferView":73,
			"componentType":5126,
			"count":1359,
			"type":"VEC2"
		},
		{
			"bufferView":74,
			"componentType":5123,
			"count":4116,
			"type":"SCALAR"
		},
		{
			"bufferView":75,
			"componentType":5126,
			"count":1363,
			"max":[
				0.2241925448179245,
				0.11807011067867279,
				0.21850767731666565
			],
			"min":[
				-0.2241925299167633,
				0.0017536028753966093,
				-0.516749382019043
			],
			"type":"VEC3"
		},
		{
			"bufferView":76,
			"componentType":5126,
			"count":1363,
			"type":"VEC3"
		},
		{
			"bufferView":77,
			"componentType":5126,
			"count":1363,
			"type":"VEC2"
		},
		{
			"bufferView":78,
			"componentType":5123,
			"count":4680,
			"type":"SCALAR"
		},
		{
			"bufferView":79,
			"componentType":5126,
			"count":194,
			"max":[
				0.23483514785766602,
				0.3840022385120392,
				0.16615673899650574
			],
			"min":[
				-0.23483538627624512,
				0.2812742590904236,
				-0.3195542097091675
			],
			"type":"VEC3"
		},
		{
			"bufferView":80,
			"componentType":5126,
			"count":194,
			"type":"VEC3"
		},
		{
			"bufferView":81,
			"componentType":5126,
			"count":194,
			"type":"VEC2"
		},
		{
			"bufferView":82,
			"componentType":5126,
			"count":194,
			"type":"VEC2"
		},
		{
			"bufferView":83,
			"componentType":5123,
			"count":516,
			"type":"SCALAR"
		}
	],
	"bufferViews":[
		{
			"buffer":0,
			"byteLength":37632,
			"byteOffset":0,
			"target":34962
		},
		{
			"buffer":0,
			"byteLength":37632,
			"byteOffset":37632,
			"target":34962
		},
		{
			"buffer":0,
			"byteLength":25088,
			"byteOffset":75264,
			"target":34962
		},
		{
			"buffer":0,
			"byteLength":24000,
			"byteOffset":100352,
			"target":34963
		},
		{
			"buffer":0,
			"byteLength":24960,
			"byteOffset":124352,
			"target":34962
		},
		{
			"buffer":0,
			"byteLength":24960,
			"byteOffset":149312,
			"target":34962
		},
		{
			"buffer":0,
			"byteLength":16640,
			"byteOffset":174272,
			"target":34962
		},
		{
			"buffer":0,
			"byteLength":11904,
			"byteOffset":190912,
			"target":34963
		},
		{
			"buffer":0,
			"byteLength":960,
			"byteOffset":202816,
			"target":34962
		},
		{
			"buffer":0,
			"byteLength":960,
			"byteOffset":203776,
			"target":34962
		},
		{
			"buffer":0,
			"byteLength":640,
			"byteOffset":204736,
			"target":34962
		},
		{
			"buffer":0,
			"byteLength":288,
			"byteOffset":205376,
			"target":34963
		},
		{
			"buffer":0,
			"byteLength":11208,
			"byteOffset":205664,
			"target":34962
		},
		{
			"buffer":0,
			"byteLength":11208,
			"byteOffset":216872,
			"target":34962
		},
		{
			"buffer":0,
			"byteLength":7472,
			"byteOffset":228080,
			"target":34962
		},
		{
			"buffer":0,
			"byteLength":7608,
			"byteOffset":235552,
			"target":34963
		},
		{
			"buffer":0,
			"byteLength":1680,
			"byteOffset":243160,
			"target":34962
		},
		{
			"buffer":0,
			"byteLength":1680,
			"byteOffset":244840,
			"target":34962
		},
		{
			"buffer":0,
			"byteLength":1120,
			"byteOffset":246520,
			"target":34962
		},
		{
			"buffer":0,
			"byteLength":1120,
			"byteOffset":247640,
			"target":34962
		},
		{
			"buffer":0,
			"byteLength":828,
			"byteOffset":248760,
			"target":34963
		},
		{
			"buffer":0,
			"byteLength":48,
			"byteOffset":249588,
			"target":34962
		},
		{
			"buffer":0,
			"byteLength":48,
			"byteOffset":249636,
			"target":34962
		},
		{
			"buffer":0,
			"byteLength":32,
			"byteOffset":249684,
			"target":34962
		},
		{
			"buffer":0,
			"byteLength":12,
			"byteOffset":249716,
			"target":34963
		},
		{
			"buffer":0,
			"byteLength":3408,
			"byteOffset":249728,
			"target":34962
		},
		{
			"buffer":0,
			"byteLength":3408,
			"byteOffset":253136,
			"target":34962
		},
		{
			"buffer":0,
			"byteLength":2272,
			"byteOffset":256544,
			"target":34962
		},
		{
			"buffer":0,
			"byteLength":2272,
			"byteOffset":258816,
			"target":34962
		},
		{
			"buffer":0,
			"byteLength":2652,
			"byteOffset":261088,
			"target":34963
		},
		{
			"buffer":0,
			"byteLength":576,
			"byteOffset":263740,
			"target":34962
		},
		{
			"buffer":0,
			"byteLength":576,
			"byteOffset":264316,
			"target":34962
		},
		{
			"buffer":0,
			"byteLength":384,
			"byteOffset":264892,
			"target":34962
		},
		{
			"buffer":0,
			"byteLength":192,
			"byteOffset":265276,
			"target":34963
		},
		{
			"buffer":0,
			"byteLength":48,
			"byteOffset":265468,
			"target":34962
		},
		{
			"buffer":0,
			"byteLength":48,
			"byteOffset":265516,
			"target":34962
		},
		{
			"buffer":0,
			"byteLength":32,
			"byteOffset":265564,
			"target":34962
		},
		{
			"buffer":0,
			"byteLength":3456,
			"byteOffset":265596,
			"target":34962
		},
		{
			"buffer":0,
			"byteLength":3456,
			"byteOffset":269052,
			"target":34962
		},
		{
			"buffer":0,
			"byteLength":2304,
			"byteOffset":272508,
			"target":34962
		},
		{
			"buffer":0,
			"byteLength":3240,
			"byteOffset":274812,
			"target":34963
		},
		{
			"buffer":0,
			"byteLength":2376,
			"byteOffset":278052,
			"target":34962
		},
		{
			"buffer":0,
			"byteLength":2376,
			"byteOffset":280428,
			"target":34962
		},
		{
			"buffer":0,
			"byteLength":1584,
			"byteOffset":282804,
			"target":34962
		},
		{
			"buffer":0,
			"byteLength":1584,
			"byteOffset":284388,
			"target":34962
		},
		{
			"buffer":0,
			"byteLength":1920,
			"byteOffset":285972,
			"target":34963
		},
		{
			"buffer":0,
			"byteLength":147204,
			"byteOffset":287892,
			"target":34962
		},
		{
			"buffer":0,
			"byteLength":147204,
			"byteOffset":435096,
			"target":34962
		},
		{
			"buffer":0,
			"byteLength":98136,
			"byteOffset":582300,
			"target":34962
		},
		{
			"buffer":0,
			"byteLength":122784,
			"byteOffset":680436,
			"target":34963
		},
		{
			"buffer":0,
			"byteLength":3288,
			"byteOffset":803220,
			"target":34962
		},
		{
			"buffer":0,
			"byteLength":3288,
			"byteOffset":806508,
			"target":34962
		},
		{
			"buffer":0,
			"byteLength":2192,
			"byteOffset":809796,
			"target":34962
		},
		{
			"buffer":0,
			"byteLength":1632,
			"byteOffset":811988,
			"target":34963
		},
		{
			"buffer":0,
			"byteLength":71124,
			"byteOffset":813620,
			"target":34962
		},
		{
			"buffer":0,
			"byteLength":71124,
			"byteOffset":884744,
			"target":34962
		},
		{
			"buffer":0,
			"byteLength":47416,
			"byteOffset":955868,
			"target":34962
		},
		{
			"buffer":0,
			"byteLength":56688,
			"byteOffset":1003284,
			"target":34963
		},
		{
			"buffer":0,
			"byteLength":14484,
			"byteOffset":1059972,
			"target":34962
		},
		{
			"buffer":0,
			"byteLength":14484,
			"byteOffset":1074456,
			"target":34962
		},
		{
			"buffer":0,
			"byteLength":9656,
			"byteOffset":1088940,
			"target":34962
		},
		{
			"buffer":0,
			"byteLength":7200,
			"byteOffset":1098596,
			"target":34963
		},
		{
			"buffer":0,
			"byteLength":16128,
			"byteOffset":1105796,
			"target":34962
		},
		{
			"buffer":0,
			"byteLength":16128,
			"byteOffset":1121924,
			"target":34962
		},
		{
			"buffer":0,
			"byteLength":10752,
			"byteOffset":1138052,
			"target":34962
		},
		{
			"buffer":0,
			"byteLength":5208,
			"byteOffset":1148804,
			"target":34963
		},
		{
			"buffer":0,
			"byteLength":78936,
			"byteOffset":1154012,
			"target":34962
		},
		{
			"buffer":0,
			"byteLength":78936,
			"byteOffset":1232948,
			"target":34962
		},
		{
			"buffer":0,
			"byteLength":52624,
			"byteOffset":1311884,
			"target":34962
		},
		{
			"buffer":0,
			"byteLength":64116,
			"byteOffset":1364508,
			"target":34963
		},
		{
			"buffer":0,
			"byteLength":16308,
			"byteOffset":1428624,
			"target":34962
		},
		{
			"buffer":0,
			"byteLength":16308,
			"byteOffset":1444932,
			"target":34962
		},
		{
			"buffer":0,
			"byteLength":10872,
			"byteOffset":1461240,
			"target":34962
		},
		{
			"buffer":0,
			"byteLength":10872,
			"byteOffset":1472112,
			"target":34962
		},
		{
			"buffer":0,
			"byteLength":8232,
			"byteOffset":1482984,
			"target":34963
		},
		{
			"buffer":0,
			"byteLength":16356,
			"byteOffset":1491216,
			"target":34962
		},
		{
			"buffer":0,
			"byteLength":16356,
			"byteOffset":1507572,
			"target":34962
		},
		{
			"buffer":0,
			"byteLength":10904,
			"byteOffset":1523928,
			"target":34962
		},
		{
			"buffer":0,
			"byteLength":9360,
			"byteOffset":1534832,
			"target":34963
		},
		{
			"buffer":0,
			"byteLength":2328,
			"byteOffset":1544192,
			"target":34962
		},
		{
			"buffer":0,
			"byteLength":2328,
			"byteOffset":1546520,
			"target":34962
		},
		{
			"buffer":0,
			"byteLength":1552,
			"byteOffset":1548848,
			"target":34962
		},
		{
			"buffer":0,
			"byteLength":1552,
			"byteOffset":1550400,
			"target":34962
		},
		{
			"buffer":0,
			"byteLength":1032,
			"byteOffset":1551952,
			"target":34963
		}
	],
	"samplers":[
		{
			"magFilter":9729,
			"minFilter":9987
		}
	],
	"buffers":[
		{
			"byteLength":1552984,
			"uri":"chalet.bin"
		}
	]
}
